<svg width="32" height="32" viewBox="0 0 32 32" fill="none" xmlns="http://www.w3.org/2000/svg">
<g id="account_circle_32">
<path id="Vector" d="M8.19498 23.5064C9.41383 22.6736 10.6458 22.0187 11.891 21.5415C13.1361 21.0642 14.5057 20.8256 15.9998 20.8256C17.4938 20.8256 18.8624 21.0642 20.1055 21.5415C21.3487 22.0187 22.5914 22.6736 23.8335 23.5064C24.7689 22.5038 25.5012 21.3734 26.0305 20.115C26.5599 18.8566 26.8246 17.4869 26.8246 16.0059C26.8246 12.9886 25.7738 10.4291 23.6722 8.32756C21.5706 6.22598 19.0132 5.17519 15.9998 5.17519C12.9864 5.17519 10.4289 6.22598 8.32732 8.32756C6.22574 10.4291 5.17495 12.9886 5.17495 16.0059C5.17495 17.4869 5.44048 18.8566 5.97155 20.115C6.50259 21.3734 7.24374 22.5038 8.19498 23.5064ZM15.997 16.5453C14.8769 16.5453 13.9392 16.1667 13.184 15.4096C12.4287 14.6525 12.051 13.7139 12.051 12.5938C12.051 11.4737 12.4296 10.536 13.1867 9.78076C13.9439 9.02549 14.8825 8.64786 16.0026 8.64786C17.1226 8.64786 18.0603 9.02643 18.8156 9.78356C19.5708 10.5407 19.9485 11.4793 19.9485 12.5994C19.9485 13.7195 19.5699 14.6571 18.8128 15.4124C18.0556 16.1677 17.117 16.5453 15.997 16.5453ZM16.0046 27.906C14.3544 27.906 12.8034 27.5947 11.3516 26.972C9.89979 26.3493 8.63838 25.5002 7.56738 24.4246C6.49636 23.3489 5.64967 22.0893 5.02732 20.6456C4.40494 19.2019 4.09375 17.6521 4.09375 15.9962C4.09375 14.3472 4.40508 12.7992 5.02775 11.3521C5.65039 9.90496 6.49954 8.64468 7.57518 7.57126C8.65083 6.49782 9.91049 5.64992 11.3542 5.02756C12.7979 4.40518 14.3477 4.09399 16.0035 4.09399C17.6525 4.09399 19.2005 4.40533 20.6477 5.02799C22.0948 5.65064 23.3551 6.49978 24.4285 7.57543C25.5019 8.65107 26.3498 9.91152 26.9722 11.3568C27.5946 12.802 27.9058 14.3482 27.9058 15.9952C27.9058 17.6453 27.5944 19.1963 26.9718 20.6481C26.3491 22.1 25.5 23.3614 24.4243 24.4324C23.3487 25.5034 22.0882 26.3501 20.643 26.9724C19.1977 27.5948 17.6516 27.906 16.0046 27.906ZM15.9983 26.8248C17.2403 26.8248 18.4682 26.6105 19.682 26.1821C20.8958 25.7536 21.9881 25.1242 22.9587 24.294C21.9881 23.5553 20.9182 22.9727 19.7491 22.5464C18.5799 22.12 17.3311 21.9068 16.0025 21.9068C14.674 21.9068 13.415 22.1108 12.2257 22.5188C11.0363 22.9268 9.98036 23.5185 9.05785 24.294C10.0171 25.1242 11.1032 25.7536 12.3161 26.1821C13.5289 26.6105 14.7563 26.8248 15.9983 26.8248ZM16.0022 15.4641C16.8219 15.4641 17.5044 15.1907 18.0496 14.644C18.5947 14.0972 18.8673 13.414 18.8673 12.5942C18.8673 11.7744 18.5939 11.0919 18.0472 10.5468C17.5004 10.0016 16.8171 9.72906 15.9974 9.72906C15.1776 9.72906 14.4951 10.0024 13.95 10.5492C13.4048 11.0959 13.1322 11.7792 13.1322 12.599C13.1322 13.4187 13.4056 14.1012 13.9524 14.6464C14.4991 15.1915 15.1824 15.4641 16.0022 15.4641Z" fill="#1D2023"/>
</g>
</svg>
