<svg width="32" height="32" viewBox="0 0 32 32" fill="none" xmlns="http://www.w3.org/2000/svg">
<g id="Account">
<path id="Vector" d="M16.0003 15.1795C14.9003 15.1795 13.9587 14.7878 13.1753 14.0045C12.392 13.2212 12.0003 12.2795 12.0003 11.1795C12.0003 10.0795 12.392 9.13779 13.1753 8.35446C13.9587 7.57113 14.9003 7.17946 16.0003 7.17946C17.1003 7.17946 18.042 7.57113 18.8253 8.35446C19.6087 9.13779 20.0003 10.0795 20.0003 11.1795C20.0003 12.2795 19.6087 13.2212 18.8253 14.0045C18.042 14.7878 17.1003 15.1795 16.0003 15.1795ZM23.9491 24.8205H8.05159C7.66015 24.8205 7.33151 24.6876 7.06569 24.4218C6.79989 24.156 6.66699 23.8274 6.66699 23.4359V22.6256C6.66699 22.0752 6.82725 21.5602 7.14776 21.0808C7.46827 20.6013 7.89947 20.229 8.44136 19.9641C9.69947 19.3607 10.9584 18.9081 12.2183 18.6064C13.4781 18.3047 14.7388 18.1538 16.0003 18.1538C17.2619 18.1538 18.5225 18.3047 19.7824 18.6064C21.0422 18.9081 22.3012 19.3607 23.5593 19.9641C24.1012 20.229 24.5324 20.6013 24.8529 21.0808C25.1734 21.5602 25.3337 22.0752 25.3337 22.6256V23.4359C25.3337 23.8274 25.2008 24.156 24.935 24.4218C24.6691 24.6876 24.3405 24.8205 23.9491 24.8205ZM8.00033 23.4872H24.0003V22.6256C24.0003 22.3299 23.905 22.0521 23.7144 21.7923C23.5238 21.5325 23.2601 21.3128 22.9234 21.1333C21.826 20.6017 20.6945 20.1944 19.5289 19.9115C18.3633 19.6286 17.1871 19.4872 16.0003 19.4872C14.8135 19.4872 13.6374 19.6286 12.4718 19.9115C11.3062 20.1944 10.1747 20.6017 9.07726 21.1333C8.7405 21.3128 8.47683 21.5325 8.28623 21.7923C8.09563 22.0521 8.00033 22.3299 8.00033 22.6256V23.4872ZM16.0003 13.8462C16.7337 13.8462 17.3614 13.585 17.8837 13.0628C18.4059 12.5406 18.667 11.9128 18.667 11.1795C18.667 10.4462 18.4059 9.81838 17.8837 9.29616C17.3614 8.77394 16.7337 8.51283 16.0003 8.51283C15.267 8.51283 14.6392 8.77394 14.117 9.29616C13.5948 9.81838 13.3337 10.4462 13.3337 11.1795C13.3337 11.9128 13.5948 12.5406 14.117 13.0628C14.6392 13.585 15.267 13.8462 16.0003 13.8462Z" fill="#1D2023"/>
</g>
</svg>
