<svg width="34" height="34" viewBox="0 0 34 34" fill="none" xmlns="http://www.w3.org/2000/svg">
<g id="Add">
<path id="Vector" d="M16.3333 17.6667H9.66667C9.47778 17.6667 9.31944 17.6027 9.19167 17.4747C9.06389 17.3468 9 17.1883 9 16.9991C9 16.8099 9.06389 16.6517 9.19167 16.5244C9.31944 16.397 9.47778 16.3333 9.66667 16.3333H16.3333V9.66667C16.3333 9.47778 16.3973 9.31944 16.5253 9.19167C16.6532 9.06389 16.8117 9 17.0009 9C17.1901 9 17.3483 9.06389 17.4756 9.19167C17.603 9.31944 17.6667 9.47778 17.6667 9.66667V16.3333H24.3333C24.5222 16.3333 24.6806 16.3973 24.8083 16.5253C24.9361 16.6532 25 16.8117 25 17.0009C25 17.1901 24.9361 17.3483 24.8083 17.4756C24.6806 17.603 24.5222 17.6667 24.3333 17.6667H17.6667V24.3333C17.6667 24.5222 17.6027 24.6806 17.4747 24.8083C17.3468 24.9361 17.1883 25 16.9991 25C16.8099 25 16.6517 24.9361 16.5244 24.8083C16.397 24.6806 16.3333 24.5222 16.3333 24.3333V17.6667Z" fill="#1463F3"/>
<rect x="1" y="1" width="32" height="32" rx="16" stroke="#1463F3" stroke-width="0.5"/>
</g>
</svg>
