<svg width="25" height="24" viewBox="0 0 25 24" fill="none" xmlns="http://www.w3.org/2000/svg">
<g id="Add_image">
<path id="Vector" d="M5.43083 19.9997C4.9866 19.9997 4.6063 19.8415 4.28995 19.5252C3.9736 19.2088 3.81543 18.8286 3.81543 18.3843V5.61507C3.81543 5.17083 3.9736 4.79055 4.28995 4.47422C4.6063 4.15787 4.9866 3.99969 5.43083 3.99969H13.3154C13.4571 3.99969 13.5758 4.04768 13.6717 4.14364C13.7675 4.23959 13.8154 4.3585 13.8154 4.50037C13.8154 4.64222 13.7675 4.7609 13.6717 4.85642C13.5758 4.95193 13.4571 4.99969 13.3154 4.99969H5.43083C5.25135 4.99969 5.10391 5.05738 4.98853 5.17277C4.87313 5.28815 4.81543 5.43558 4.81543 5.61507V18.3843C4.81543 18.5638 4.87313 18.7112 4.98853 18.8266C5.10391 18.942 5.25135 18.9997 5.43083 18.9997H18.2001C18.3795 18.9997 18.527 18.942 18.6424 18.8266C18.7577 18.7112 18.8154 18.5638 18.8154 18.3843V10.4997C18.8154 10.358 18.8634 10.2393 18.9594 10.1434C19.0553 10.0476 19.1743 9.99969 19.3161 9.99969C19.458 9.99969 19.5767 10.0476 19.6722 10.1434C19.7677 10.2393 19.8155 10.358 19.8155 10.4997V18.3843C19.8155 18.8286 19.6573 19.2088 19.3409 19.5252C19.0246 19.8415 18.6443 19.9997 18.2001 19.9997H5.43083ZM17.5847 6.23047H16.0847C15.943 6.23047 15.8243 6.18249 15.7284 6.08652C15.6326 5.99055 15.5847 5.87164 15.5847 5.72979C15.5847 5.58793 15.6326 5.46924 15.7284 5.37374C15.8243 5.27823 15.943 5.23047 16.0847 5.23047H17.5847V3.73047C17.5847 3.5888 17.6327 3.47005 17.7286 3.37422C17.8246 3.27839 17.9435 3.23047 18.0854 3.23047C18.2272 3.23047 18.3459 3.27839 18.4414 3.37422C18.5369 3.47005 18.5847 3.5888 18.5847 3.73047V5.23047H20.0847C20.2263 5.23047 20.3451 5.27845 20.4409 5.37442C20.5368 5.47037 20.5847 5.58928 20.5847 5.73114C20.5847 5.87299 20.5368 5.99168 20.4409 6.08719C20.3451 6.18271 20.2263 6.23047 20.0847 6.23047H18.5847V7.73047C18.5847 7.87214 18.5367 7.99089 18.4407 8.08672C18.3448 8.18255 18.2259 8.23047 18.084 8.23047C17.9421 8.23047 17.8234 8.18255 17.7279 8.08672C17.6324 7.99089 17.5847 7.87214 17.5847 7.73047V6.23047ZM11.027 16.0381L9.60005 14.3131C9.51287 14.2183 9.40839 14.1708 9.2866 14.1708C9.1648 14.1708 9.06031 14.2247 8.97313 14.3324L7.81928 15.8535C7.71158 15.9946 7.69651 16.1375 7.77408 16.2824C7.85165 16.4273 7.968 16.4997 8.12313 16.4997H15.6616C15.8167 16.4997 15.9331 16.4273 16.0106 16.2824C16.0882 16.1375 16.0795 15.9946 15.9847 15.8535L13.9655 13.1401C13.8783 13.0324 13.7706 12.9785 13.6424 12.9785C13.5142 12.9785 13.406 13.034 13.3179 13.145L11.027 16.0381Z" fill="#595A5E"/>
</g>
</svg>
