<svg width="24" height="24" viewBox="0 0 24 24" fill="none" xmlns="http://www.w3.org/2000/svg">
<g id="Authentication">
<path id="Vector" d="M12.4808 20C12.3385 20 12.2196 19.9522 12.1241 19.8567C12.0285 19.7612 11.9808 19.6423 11.9808 19.5C11.9808 19.3577 12.0285 19.2388 12.1241 19.1433C12.2196 19.0478 12.3385 19 12.4808 19H18.3846C18.5385 19 18.6795 18.9359 18.8077 18.8077C18.9359 18.6795 19 18.5385 19 18.3846V5.61537C19 5.46154 18.9359 5.32052 18.8077 5.1923C18.6795 5.0641 18.5385 5 18.3846 5H12.4808C12.3385 5 12.2196 4.95224 12.1241 4.85672C12.0285 4.76121 11.9808 4.6423 11.9808 4.5C11.9808 4.35768 12.0285 4.23878 12.1241 4.14328C12.2196 4.04776 12.3385 4 12.4808 4H18.3846C18.8449 4 19.2292 4.15417 19.5375 4.4625C19.8458 4.77083 20 5.15512 20 5.61537V18.3846C20 18.8449 19.8458 19.2292 19.5375 19.5375C19.2292 19.8458 18.8449 20 18.3846 20H12.4808ZM12.8865 12.5H4.5C4.35768 12.5 4.23878 12.4522 4.14328 12.3567C4.04776 12.2612 4 12.1423 4 12C4 11.8577 4.04776 11.7388 4.14328 11.6433C4.23878 11.5478 4.35768 11.5 4.5 11.5H12.8865L10.9154 9.52885C10.8218 9.43525 10.7718 9.32242 10.7654 9.19037C10.759 9.05832 10.809 8.93718 10.9154 8.82693C11.0218 8.71666 11.1397 8.66057 11.2692 8.65865C11.3987 8.65672 11.5186 8.71088 11.6288 8.82115L14.2423 11.4346C14.4039 11.5962 14.4846 11.7846 14.4846 12C14.4846 12.2154 14.4039 12.4038 14.2423 12.5654L11.6288 15.1789C11.5314 15.2763 11.4157 15.3272 11.2817 15.3317C11.1477 15.3362 11.0256 15.2833 10.9154 15.1731C10.809 15.0628 10.7567 14.9439 10.7587 14.8163C10.7606 14.6888 10.8147 14.5718 10.9212 14.4654L12.8865 12.5Z" fill="#1D2023"/>
</g>
</svg>
