<svg width="91" height="29" viewBox="0 0 91 29" fill="none" xmlns="http://www.w3.org/2000/svg">
<g id="Brand Logo">
<g id="Rollog">
<path d="M15.9804 22.6205H14.6894L9.05295 12.6367C10.0501 12.5112 10.9423 12.2077 11.7295 11.7263C12.5272 11.2344 13.157 10.5803 13.6188 9.76404C14.0911 8.94775 14.3273 7.99542 14.3273 6.90704C14.3273 5.70354 14.0544 4.67271 13.5086 3.81457C12.9628 2.94596 12.2175 2.28141 11.2729 1.82095C10.3387 1.36048 9.28387 1.13024 8.1083 1.13024H0V0H8.1083C9.4833 0 10.7323 0.287793 11.8554 0.86338C12.9785 1.43897 13.8707 2.24479 14.532 3.28084C15.1932 4.3169 15.5238 5.52563 15.5238 6.90704C15.5238 8.52914 15.0883 9.90532 14.2171 11.0356C13.3564 12.1658 12.2071 12.9559 10.7691 13.4059L15.9804 22.6205Z" fill="#1D2023"/>
<path d="M29.0293 6.84425C30.5093 6.84425 31.8108 7.20529 32.9339 7.92739C34.057 8.64949 34.9334 9.61753 35.5632 10.8315C36.193 12.035 36.5079 13.3745 36.5079 14.8501C36.5079 16.3257 36.193 17.6705 35.5632 18.8845C34.9334 20.0984 34.057 21.0665 32.9339 21.7886C31.8108 22.5107 30.5093 22.8717 29.0293 22.8717C27.5494 22.8717 26.2426 22.5107 25.109 21.7886C23.9754 21.0665 23.0885 20.0984 22.4482 18.8845C21.8185 17.6705 21.5036 16.3257 21.5036 14.8501H22.7316C22.7316 16.1269 22.9888 17.2885 23.5031 18.335C24.0279 19.3816 24.7574 20.2188 25.6916 20.8467C26.6362 21.4641 27.7488 21.7729 29.0293 21.7729C30.2994 21.7729 31.4015 21.4641 32.3356 20.8467C33.2803 20.2188 34.0045 19.3816 34.5084 18.335C35.0227 17.2885 35.2798 16.1269 35.2798 14.8501C35.2798 13.5838 35.0227 12.4274 34.5084 11.3809C34.0045 10.3344 33.2803 9.50241 32.3356 8.88496C31.4015 8.25705 30.2994 7.94309 29.0293 7.94309C29.0188 7.94309 29.0136 7.94309 29.0136 7.94309V6.84425C29.0136 6.84425 29.0188 6.84425 29.0293 6.84425Z" fill="#1D2023"/>
<path d="M42.0114 0H43.1449V22.6205H42.0114V0Z" fill="#1D2023"/>
<path d="M48.6709 0H49.8045V22.6205H48.6709V0Z" fill="#1D2023"/>
<path d="M62.8563 6.84425C64.3362 6.84425 65.6377 7.20529 66.7608 7.92739C67.8839 8.64949 68.7604 9.61753 69.3901 10.8315C70.0199 12.035 70.3348 13.3745 70.3348 14.8501C70.3348 16.3257 70.0199 17.6705 69.3901 18.8845C68.7604 20.0984 67.8839 21.0665 66.7608 21.7886C65.6377 22.5107 64.3362 22.8717 62.8563 22.8717C61.3763 22.8717 60.0695 22.5107 58.9359 21.7886C57.8024 21.0665 56.9154 20.0984 56.2752 18.8845C55.6454 17.6705 55.3305 16.3257 55.3305 14.8501H56.5586C56.5586 16.1269 56.8157 17.2885 57.33 18.335C57.8548 19.3816 58.5843 20.2188 59.5185 20.8467C60.4631 21.4641 61.5757 21.7729 62.8563 21.7729C64.1263 21.7729 65.2284 21.4641 66.1626 20.8467C67.1072 20.2188 67.8315 19.3816 68.3353 18.335C68.8496 17.2885 69.1067 16.1269 69.1067 14.8501C69.1067 13.5838 68.8496 12.4274 68.3353 11.3809C67.8315 10.3344 67.1072 9.50241 66.1626 8.88496C65.2284 8.25705 64.1263 7.94309 62.8563 7.94309C62.8458 7.94309 62.8405 7.94309 62.8405 7.94309V6.84425C62.8405 6.84425 62.8458 6.84425 62.8563 6.84425Z" fill="#1D2023"/>
<path d="M91 7.1896C90.4647 7.1896 89.9819 7.28378 89.5515 7.47216C89.1212 7.65007 88.7486 7.87507 88.4337 8.14716C88.1188 8.40879 87.8616 8.67042 87.6622 8.93205C88.0086 9.36113 88.2815 9.85299 88.4809 10.4076C88.6908 10.9623 88.7958 11.5902 88.7958 12.2914C88.7958 13.474 88.5072 14.4682 87.9299 15.274C87.3631 16.0798 86.6178 16.692 85.6942 17.1106C84.7705 17.5188 83.7996 17.7228 82.7815 17.7228C82.2567 17.7228 81.7371 17.6653 81.2228 17.5502C80.7925 17.9269 80.5091 18.3036 80.3726 18.6804C80.2362 19.0467 80.2047 19.3397 80.2782 19.5595C80.3621 19.8734 80.635 20.0984 81.0969 20.2345C81.5692 20.3601 82.3459 20.4281 83.427 20.4385C84.823 20.449 86.0301 20.5798 87.0482 20.831C88.0768 21.0717 88.8693 21.4746 89.4256 22.0397C89.9819 22.5944 90.26 23.3636 90.26 24.3473C90.26 25.7182 89.6198 26.8485 88.3392 27.738C87.0587 28.638 85.2166 29.0566 82.813 28.9939C80.8607 28.8683 79.323 28.5125 78.1999 27.9264C77.0768 27.3508 76.2896 26.8223 75.8383 26.3409L76.5468 25.5403C77.1765 26.1055 78.0005 26.613 79.0186 27.063C80.0472 27.5235 81.312 27.8008 82.813 27.895C83.9361 27.9578 84.9647 27.8636 85.8989 27.6124C86.8435 27.3613 87.5992 26.9636 88.166 26.4194C88.7433 25.8857 89.032 25.2264 89.032 24.4415C89.032 23.6566 88.7748 23.0601 88.2605 22.6519C87.7462 22.2543 87.0639 21.9822 86.2137 21.8357C85.374 21.6787 84.4346 21.5897 83.3955 21.5688C82.1675 21.5374 81.1808 21.4066 80.4356 21.1763C79.6904 20.9356 79.2495 20.4699 79.1131 19.7792C79.0501 19.4025 79.1131 18.9839 79.302 18.5234C79.4909 18.0525 79.7848 17.6234 80.1837 17.2362C79.5329 16.985 78.9451 16.6344 78.4203 16.1844C77.906 15.7344 77.4967 15.185 77.1923 14.5362C76.8984 13.8769 76.7514 13.1286 76.7514 12.2914C76.7514 12.2914 76.7514 12.2862 76.7514 12.2757H77.9795C77.9795 12.2862 77.9795 12.2914 77.9795 12.2914C77.9795 13.2751 78.2052 14.0862 78.6565 14.7245C79.1078 15.3525 79.6956 15.8234 80.4199 16.1374C81.1546 16.4408 81.9418 16.5926 82.7815 16.5926C83.6107 16.5926 84.3874 16.4408 85.1116 16.1374C85.8464 15.8234 86.4394 15.3525 86.8907 14.7245C87.3421 14.0862 87.5678 13.2751 87.5678 12.2914C87.5678 11.2972 87.3421 10.4809 86.8907 9.84253C86.4394 9.20415 85.8464 8.73321 85.1116 8.42972C84.3874 8.11577 83.6107 7.95879 82.7815 7.95879V6.82855C83.5582 6.82855 84.3087 6.9489 85.0329 7.1896C85.7572 7.4303 86.4079 7.78088 86.9852 8.24135C87.4785 7.52972 88.0663 6.95936 88.7486 6.53029C89.4413 6.10122 90.1918 5.88668 91 5.88668V7.1896Z" fill="#1D2023"/>
</g>
</g>
</svg>
