<svg width="24" height="24" viewBox="0 0 24 24" fill="none" xmlns="http://www.w3.org/2000/svg">
<g id="Bulleted_list">
<path id="Vector" d="M10.1154 18.4998C9.97371 18.4998 9.85496 18.4518 9.75912 18.3558C9.66329 18.2599 9.61538 18.141 9.61538 17.9991C9.61538 17.8572 9.66329 17.7386 9.75912 17.6431C9.85496 17.5475 9.97371 17.4998 10.1154 17.4998H19.5C19.6417 17.4998 19.7604 17.5478 19.8562 17.6437C19.9521 17.7397 20 17.8586 20 18.0005C20 18.1423 19.9521 18.261 19.8562 18.3565C19.7604 18.452 19.6417 18.4998 19.5 18.4998H10.1154ZM10.1154 12.4998C9.97371 12.4998 9.85496 12.4518 9.75912 12.3558C9.66329 12.2599 9.61538 12.141 9.61538 11.9991C9.61538 11.8572 9.66329 11.7386 9.75912 11.6431C9.85496 11.5475 9.97371 11.4998 10.1154 11.4998H19.5C19.6417 11.4998 19.7604 11.5478 19.8562 11.6437C19.9521 11.7397 20 11.8586 20 12.0005C20 12.1423 19.9521 12.261 19.8562 12.3565C19.7604 12.452 19.6417 12.4998 19.5 12.4998H10.1154ZM10.1154 6.49978C9.97371 6.49978 9.85496 6.45179 9.75912 6.35583C9.66329 6.25988 9.61538 6.14097 9.61538 5.9991C9.61538 5.85724 9.66329 5.73855 9.75912 5.64305C9.85496 5.54754 9.97371 5.49978 10.1154 5.49978H19.5C19.6417 5.49978 19.7604 5.54776 19.8562 5.64373C19.9521 5.73968 20 5.85859 20 6.00045C20 6.14232 19.9521 6.261 19.8562 6.3565C19.7604 6.45202 19.6417 6.49978 19.5 6.49978H10.1154ZM5.32692 19.3267C4.96202 19.3267 4.64964 19.1968 4.38978 18.9369C4.12993 18.6771 4 18.3647 4 17.9998C4 17.6349 4.12993 17.3225 4.38978 17.0626C4.64964 16.8028 4.96202 16.6729 5.32692 16.6729C5.69182 16.6729 6.00421 16.8028 6.26408 17.0626C6.52393 17.3225 6.65385 17.6349 6.65385 17.9998C6.65385 18.3647 6.52393 18.6771 6.26408 18.9369C6.00421 19.1968 5.69182 19.3267 5.32692 19.3267ZM5.32692 13.3267C4.96202 13.3267 4.64964 13.1968 4.38978 12.9369C4.12993 12.6771 4 12.3647 4 11.9998C4 11.6349 4.12993 11.3225 4.38978 11.0626C4.64964 10.8028 4.96202 10.6729 5.32692 10.6729C5.69182 10.6729 6.00421 10.8028 6.26408 11.0626C6.52393 11.3225 6.65385 11.6349 6.65385 11.9998C6.65385 12.3647 6.52393 12.6771 6.26408 12.9369C6.00421 13.1968 5.69182 13.3267 5.32692 13.3267ZM5.32692 7.3267C4.96202 7.3267 4.64964 7.19678 4.38978 6.93693C4.12993 6.67706 4 6.36468 4 5.99978C4 5.63488 4.12993 5.32249 4.38978 5.06263C4.64964 4.80278 4.96202 4.67285 5.32692 4.67285C5.69182 4.67285 6.00421 4.80278 6.26408 5.06263C6.52393 5.32249 6.65385 5.63488 6.65385 5.99978C6.65385 6.36468 6.52393 6.67706 6.26408 6.93693C6.00421 7.19678 5.69182 7.3267 5.32692 7.3267Z" fill="#323336"/>
</g>
</svg>
