<svg width="24" height="24" viewBox="0 0 24 24" fill="none" xmlns="http://www.w3.org/2000/svg">
<g id="Cardinal_points">
<path id="Vector" d="M4.90218 12.4804H20.5195C20.6611 12.4804 20.7799 12.4324 20.8757 12.3364C20.9716 12.2404 21.0195 12.1215 21.0195 11.9797C21.0195 11.8378 20.9716 11.7191 20.8757 11.6236C20.7799 11.5281 20.6611 11.4804 20.5195 11.4804H4.88295L9.68103 6.67651C9.77034 6.58612 9.81703 6.47314 9.82108 6.33756C9.82514 6.20199 9.77846 6.08437 9.68103 5.98471C9.59171 5.89334 9.47803 5.84766 9.34 5.84766C9.20197 5.84766 9.08615 5.89445 8.99255 5.98803L3.56563 11.415C3.47844 11.5021 3.41723 11.5921 3.38198 11.6848C3.34673 11.7776 3.3291 11.8769 3.3291 11.9829C3.3291 12.0889 3.34702 12.1912 3.38285 12.29C3.41868 12.3887 3.47961 12.4803 3.56563 12.565L8.99255 17.9919C9.08293 18.0855 9.19592 18.1323 9.3315 18.1323C9.46708 18.1323 9.58359 18.0855 9.68103 17.9919C9.79128 17.8944 9.8432 17.7755 9.8368 17.6352C9.83038 17.4948 9.77846 17.3759 9.68103 17.2784L4.90218 12.4804Z" fill="#1D2023"/>
</g>
</svg>
