<svg width="32" height="33" viewBox="0 0 32 33" fill="none" xmlns="http://www.w3.org/2000/svg">
<g id="Category">
<path id="Vector" d="M11.5151 12.4923L15.0716 6.62305C15.1878 6.43501 15.3267 6.30381 15.4882 6.22945C15.6498 6.1551 15.8203 6.11792 15.9998 6.11792C16.1792 6.11792 16.3498 6.1551 16.5113 6.22945C16.6728 6.30381 16.8117 6.43501 16.928 6.62305L20.4844 12.4923C20.6006 12.6718 20.6588 12.8602 20.6588 13.0577C20.6588 13.2551 20.6117 13.4368 20.5177 13.6026C20.4237 13.7684 20.2972 13.8996 20.1382 13.9962C19.9792 14.0927 19.7938 14.141 19.5818 14.141H12.4177C12.2038 14.141 12.0166 14.0917 11.8562 13.993C11.6957 13.8942 11.5709 13.7641 11.4818 13.6026C11.3878 13.4423 11.3408 13.2642 11.3408 13.0682C11.3408 12.8723 11.3989 12.6803 11.5151 12.4923ZM23.3331 28.8077C21.9399 28.8077 20.7626 28.3269 19.801 27.3654C18.8395 26.4038 18.3587 25.2265 18.3587 23.8333C18.3587 22.4402 18.8395 21.2628 19.801 20.3013C20.7626 19.3397 21.9399 18.859 23.3331 18.859C24.7262 18.859 25.9036 19.3397 26.8652 20.3013C27.8267 21.2628 28.3075 22.4402 28.3075 23.8333C28.3075 25.2265 27.8267 26.4038 26.8652 27.3654C25.9036 28.3269 24.7262 28.8077 23.3331 28.8077ZM5.02539 27.0632V20.5965C5.02539 20.2911 5.12868 20.0363 5.33526 19.832C5.54184 19.6278 5.79781 19.5256 6.10319 19.5256H12.5699C12.8753 19.5256 13.1301 19.6289 13.3344 19.8355C13.5387 20.0421 13.6408 20.298 13.6408 20.6034V27.0702C13.6408 27.3755 13.5375 27.6303 13.3309 27.8346C13.1243 28.0389 12.8684 28.141 12.563 28.141H6.09626C5.7909 28.141 5.53608 28.0377 5.33179 27.8312C5.12752 27.6246 5.02539 27.3686 5.02539 27.0632ZM23.3324 27.4744C24.3516 27.4744 25.2134 27.1225 25.9177 26.4187C26.622 25.7149 26.9741 24.8533 26.9741 23.8341C26.9741 22.8148 26.6222 21.953 25.9184 21.2487C25.2146 20.5444 24.3531 20.1923 23.3338 20.1923C22.3145 20.1923 21.4528 20.5442 20.7485 21.248C20.0442 21.9518 19.6921 22.8133 19.6921 23.8326C19.6921 24.8519 20.044 25.7137 20.7478 26.4179C21.4516 27.1222 22.3131 27.4744 23.3324 27.4744ZM6.35872 26.8077H12.3075V20.859H6.35872V26.8077ZM12.8357 12.8077H19.1639L15.9998 7.73589L12.8357 12.8077Z" fill="#1D2023"/>
</g>
</svg>
