<svg width="24" height="24" viewBox="0 0 24 24" fill="none" xmlns="http://www.w3.org/2000/svg">
<g id="Chevron">
<path id="Vector" d="M11.9999 14.379C11.8922 14.379 11.7928 14.3614 11.7018 14.3262C11.6108 14.2909 11.5217 14.2297 11.4345 14.1425L7.04606 9.75404C6.95247 9.66046 6.90247 9.54572 6.89606 9.40982C6.88964 9.27392 6.93964 9.15276 7.04606 9.04634C7.15247 8.93993 7.27042 8.88672 7.3999 8.88672C7.52939 8.88672 7.64734 8.93993 7.75375 9.04634L11.9999 13.2925L16.2461 9.04634C16.3396 8.95276 16.4544 8.90276 16.5903 8.89634C16.7262 8.88993 16.8473 8.93993 16.9538 9.04634C17.0602 9.15276 17.1134 9.27071 17.1134 9.40019C17.1134 9.52968 17.0602 9.64763 16.9538 9.75404L12.5653 14.1425C12.4781 14.2297 12.389 14.2909 12.298 14.3262C12.207 14.3614 12.1076 14.379 11.9999 14.379Z" fill="#CCD0D8"/>
</g>
</svg>
