<svg width="25" height="24" viewBox="0 0 25 24" fill="none" xmlns="http://www.w3.org/2000/svg">
<g id="right icon">
<path id="Vector" d="M12.4999 12.7079L7.2538 17.954C7.16022 18.0476 7.04547 18.0976 6.90957 18.104C6.77367 18.1105 6.65252 18.0605 6.5461 17.954C6.43968 17.8476 6.38647 17.7297 6.38647 17.6002C6.38647 17.4707 6.43968 17.3528 6.5461 17.2463L11.7922 12.0002L6.5461 6.75404C6.45252 6.66046 6.40252 6.54572 6.3961 6.40982C6.38968 6.27392 6.43968 6.15276 6.5461 6.04634C6.65252 5.93993 6.77047 5.88672 6.89995 5.88672C7.02943 5.88672 7.14738 5.93993 7.2538 6.04634L12.4999 11.2925L17.7461 6.04634C17.8397 5.95276 17.9544 5.90276 18.0903 5.89634C18.2262 5.88993 18.3474 5.93993 18.4538 6.04634C18.5602 6.15276 18.6134 6.27071 18.6134 6.40019C18.6134 6.52968 18.5602 6.64763 18.4538 6.75404L13.2077 12.0002L18.4538 17.2463C18.5474 17.3399 18.5974 17.4547 18.6038 17.5906C18.6102 17.7265 18.5602 17.8476 18.4538 17.954C18.3474 18.0605 18.2294 18.1137 18.0999 18.1137C17.9705 18.1137 17.8525 18.0605 17.7461 17.954L12.4999 12.7079Z" fill="#A7A8AE"/>
</g>
</svg>
