<svg width="25" height="24" viewBox="0 0 25 24" fill="none" xmlns="http://www.w3.org/2000/svg">
<g id="right icon">
<path id="Vector" d="M12.4999 12.7077L7.2538 17.9538C7.16022 18.0474 7.04547 18.0974 6.90957 18.1038C6.77367 18.1102 6.65252 18.0602 6.5461 17.9538C6.43968 17.8474 6.38647 17.7294 6.38647 17.5999C6.38647 17.4705 6.43968 17.3525 6.5461 17.2461L11.7922 11.9999L6.5461 6.7538C6.45252 6.66022 6.40252 6.54547 6.3961 6.40957C6.38968 6.27367 6.43968 6.15252 6.5461 6.0461C6.65252 5.93968 6.77047 5.88647 6.89995 5.88647C7.02943 5.88647 7.14738 5.93968 7.2538 6.0461L12.4999 11.2922L17.7461 6.0461C17.8397 5.95252 17.9544 5.90252 18.0903 5.8961C18.2262 5.88968 18.3474 5.93968 18.4538 6.0461C18.5602 6.15252 18.6134 6.27047 18.6134 6.39995C18.6134 6.52943 18.5602 6.64738 18.4538 6.7538L13.2077 11.9999L18.4538 17.2461C18.5474 17.3397 18.5974 17.4544 18.6038 17.5903C18.6102 17.7262 18.5602 17.8474 18.4538 17.9538C18.3474 18.0602 18.2294 18.1134 18.0999 18.1134C17.9705 18.1134 17.8525 18.0602 17.7461 17.9538L12.4999 12.7077Z" fill="#1463F3"/>
</g>
</svg>
