<svg width="48" height="48" viewBox="0 0 48 48" fill="none" xmlns="http://www.w3.org/2000/svg">
<g id="Close">
<path id="Vector" d="M23.9999 25.4154L13.5076 35.9077C13.3204 36.0949 13.0909 36.1949 12.8191 36.2077C12.5473 36.2205 12.305 36.1205 12.0922 35.9077C11.8794 35.6949 11.7729 35.459 11.7729 35.2C11.7729 34.941 11.8794 34.7051 12.0922 34.4923L22.5845 24L12.0922 13.5077C11.905 13.3205 11.805 13.0911 11.7922 12.8193C11.7794 12.5475 11.8794 12.3051 12.0922 12.0923C12.305 11.8795 12.5409 11.7731 12.7999 11.7731C13.0589 11.7731 13.2948 11.8795 13.5076 12.0923L23.9999 22.5846L34.4922 12.0923C34.6794 11.9051 34.9089 11.8051 35.1807 11.7923C35.4525 11.7795 35.6948 11.8795 35.9076 12.0923C36.1204 12.3051 36.2269 12.541 36.2269 12.8C36.2269 13.059 36.1204 13.2949 35.9076 13.5077L25.4153 24L35.9076 34.4923C36.0948 34.6795 36.1948 34.909 36.2076 35.1808C36.2204 35.4526 36.1204 35.6949 35.9076 35.9077C35.6948 36.1205 35.4589 36.227 35.1999 36.227C34.9409 36.227 34.705 36.1205 34.4922 35.9077L23.9999 25.4154Z" fill="#1D2023"/>
</g>
</svg>
