<svg width="48" height="48" viewBox="0 0 48 48" fill="none" xmlns="http://www.w3.org/2000/svg">
<g id="Close">
<path id="Vector" d="M23.9999 25.4158L13.5076 35.9081C13.3204 36.0953 13.0909 36.1953 12.8191 36.2081C12.5473 36.2209 12.305 36.1209 12.0922 35.9081C11.8794 35.6953 11.7729 35.4594 11.7729 35.2004C11.7729 34.9414 11.8794 34.7055 12.0922 34.4927L22.5845 24.0004L12.0922 13.5081C11.905 13.3209 11.805 13.0914 11.7922 12.8196C11.7794 12.5478 11.8794 12.3055 12.0922 12.0927C12.305 11.8799 12.5409 11.7734 12.7999 11.7734C13.0589 11.7734 13.2948 11.8799 13.5076 12.0927L23.9999 22.585L34.4922 12.0927C34.6794 11.9055 34.9089 11.8055 35.1807 11.7927C35.4525 11.7799 35.6948 11.8799 35.9076 12.0927C36.1204 12.3055 36.2269 12.5414 36.2269 12.8004C36.2269 13.0594 36.1204 13.2953 35.9076 13.5081L25.4153 24.0004L35.9076 34.4927C36.0948 34.6799 36.1948 34.9093 36.2076 35.1811C36.2204 35.4529 36.1204 35.6953 35.9076 35.9081C35.6948 36.1209 35.4589 36.2273 35.1999 36.2273C34.9409 36.2273 34.705 36.1209 34.4922 35.9081L23.9999 25.4158Z" fill="white"/>
</g>
</svg>
