<svg width="24" height="24" viewBox="0 0 24 24" fill="none" xmlns="http://www.w3.org/2000/svg">
<g id="Code_block">
<path id="Vector" d="M8.11348 12L9.93463 10.1788C10.0321 10.0814 10.084 9.96668 10.0904 9.83463C10.0968 9.70256 10.0449 9.5814 9.93463 9.47115C9.82436 9.3609 9.70544 9.30578 9.57787 9.30578C9.45031 9.30578 9.3314 9.3609 9.22115 9.47115L7.2577 11.4346C7.17052 11.5218 7.10929 11.6109 7.07402 11.7019C7.03877 11.7929 7.02115 11.8923 7.02115 12C7.02115 12.1077 7.03877 12.2071 7.07402 12.2981C7.10929 12.3891 7.17052 12.4782 7.2577 12.5654L9.24038 14.5481C9.33781 14.6455 9.45352 14.6974 9.5875 14.7038C9.72148 14.7103 9.8436 14.6583 9.95385 14.5481C10.0641 14.4378 10.1192 14.3199 10.1192 14.1942C10.1192 14.0686 10.0641 13.9506 9.95385 13.8404L8.11348 12ZM15.8865 12L14.0462 13.8404C13.9487 13.9378 13.8968 14.0526 13.8904 14.1846C13.884 14.3167 13.9359 14.4378 14.0462 14.5481C14.1564 14.6583 14.2753 14.7135 14.4029 14.7135C14.5304 14.7135 14.6494 14.6583 14.7596 14.5481L16.7423 12.5654C16.8295 12.4782 16.8907 12.3891 16.926 12.2981C16.9612 12.2071 16.9789 12.1077 16.9789 12C16.9789 11.8923 16.9612 11.7929 16.926 11.7019C16.8907 11.6109 16.8295 11.5218 16.7423 11.4346L14.7596 9.45193C14.7109 9.40321 14.6561 9.36667 14.5952 9.3423C14.5343 9.31795 14.4734 9.30578 14.4125 9.30578C14.3516 9.30578 14.2875 9.31795 14.2202 9.3423C14.1529 9.36667 14.0949 9.40321 14.0462 9.45193C13.9359 9.56218 13.8808 9.68013 13.8808 9.80578C13.8808 9.93141 13.9359 10.0494 14.0462 10.1596L15.8865 12ZM5.61538 20C5.15513 20 4.77083 19.8458 4.4625 19.5375C4.15417 19.2292 4 18.8449 4 18.3846V5.61537C4 5.15512 4.15417 4.77083 4.4625 4.4625C4.77083 4.15417 5.15513 4 5.61538 4H18.3846C18.8449 4 19.2292 4.15417 19.5375 4.4625C19.8458 4.77083 20 5.15512 20 5.61537V18.3846C20 18.8449 19.8458 19.2292 19.5375 19.5375C19.2292 19.8458 18.8449 20 18.3846 20H5.61538ZM5.61538 19H18.3846C18.5385 19 18.6795 18.9359 18.8077 18.8077C18.9359 18.6795 19 18.5385 19 18.3846V5.61537C19 5.46154 18.9359 5.32052 18.8077 5.1923C18.6795 5.0641 18.5385 5 18.3846 5H5.61538C5.46154 5 5.32052 5.0641 5.1923 5.1923C5.0641 5.32052 5 5.46154 5 5.61537V18.3846C5 18.5385 5.0641 18.6795 5.1923 18.8077C5.32052 18.9359 5.46154 19 5.61538 19Z" fill="#323336"/>
</g>
</svg>
