<svg width="32" height="32" viewBox="0 0 32 32" fill="none" xmlns="http://www.w3.org/2000/svg">
<g id="Copy">
<path id="Vector" d="M8.66668 27.4872C8.053 27.4872 7.5406 27.2816 7.12948 26.8705C6.71837 26.4594 6.51282 25.947 6.51282 25.3333V10.8205C6.51282 10.6308 6.5765 10.4722 6.70385 10.3449C6.83121 10.2175 6.98975 10.1538 7.17948 10.1538C7.36924 10.1538 7.5278 10.2175 7.65515 10.3449C7.78248 10.4722 7.84615 10.6308 7.84615 10.8205V25.3333C7.84615 25.5385 7.93163 25.7265 8.10258 25.8974C8.27352 26.0684 8.46155 26.1538 8.66668 26.1538H19.1795C19.3693 26.1538 19.5278 26.2175 19.6552 26.3449C19.7825 26.4722 19.8462 26.6308 19.8462 26.8205C19.8462 27.0103 19.7825 27.1688 19.6552 27.2962C19.5278 27.4235 19.3693 27.4872 19.1795 27.4872H8.66668ZM12.6667 23.4872C12.053 23.4872 11.5406 23.2816 11.1295 22.8705C10.7184 22.4594 10.5128 21.947 10.5128 21.3333V6.97433C10.5128 6.36066 10.7184 5.84827 11.1295 5.43716C11.5406 5.02605 12.053 4.8205 12.6667 4.8205H23.0257C23.6393 4.8205 24.1517 5.02605 24.5629 5.43716C24.974 5.84827 25.1795 6.36066 25.1795 6.97433V21.3333C25.1795 21.947 24.974 22.4594 24.5629 22.8705C24.1517 23.2816 23.6393 23.4872 23.0257 23.4872H12.6667ZM12.6667 22.1538H23.0257C23.2308 22.1538 23.4188 22.0684 23.5898 21.8974C23.7607 21.7265 23.8462 21.5385 23.8462 21.3333V6.97433C23.8462 6.76922 23.7607 6.58119 23.5898 6.41023C23.4188 6.2393 23.2308 6.15383 23.0257 6.15383H12.6667C12.4616 6.15383 12.2735 6.2393 12.1026 6.41023C11.9317 6.58119 11.8462 6.76922 11.8462 6.97433V21.3333C11.8462 21.5385 11.9317 21.7265 12.1026 21.8974C12.2735 22.0684 12.4616 22.1538 12.6667 22.1538Z" fill="#1D2023"/>
</g>
</svg>
