<svg width="32" height="33" viewBox="0 0 32 33" fill="none" xmlns="http://www.w3.org/2000/svg">
<g id="Credit_card">
<path id="Vector" d="M28 9.32052V23.6795C28 24.2932 27.7944 24.8056 27.3833 25.2167C26.9722 25.6278 26.4598 25.8334 25.8462 25.8334H6.15383C5.54017 25.8334 5.02778 25.6278 4.61667 25.2167C4.20556 24.8056 4 24.2932 4 23.6795V9.32052C4 8.70685 4.20556 8.19446 4.61667 7.78335C5.02778 7.37224 5.54017 7.16669 6.15383 7.16669H25.8462C26.4598 7.16669 26.9722 7.37224 27.3833 7.78335C27.7944 8.19446 28 8.70685 28 9.32052ZM5.33333 12.2436H26.6667V9.32052C26.6667 9.11541 26.5812 8.92738 26.4103 8.75642C26.2393 8.58549 26.0513 8.50002 25.8462 8.50002H6.15383C5.94872 8.50002 5.76069 8.58549 5.58973 8.75642C5.4188 8.92738 5.33333 9.11541 5.33333 9.32052V12.2436ZM5.33333 15.4231V23.6795C5.33333 23.8846 5.4188 24.0727 5.58973 24.2436C5.76069 24.4146 5.94872 24.5 6.15383 24.5H25.8462C26.0513 24.5 26.2393 24.4146 26.4103 24.2436C26.5812 24.0727 26.6667 23.8846 26.6667 23.6795V15.4231H5.33333Z" fill="#1D2023"/>
</g>
</svg>
