<svg width="24" height="24" viewBox="0 0 24 24" fill="none" xmlns="http://www.w3.org/2000/svg">
<g id="Delete">
<path id="Vector" d="M7.61537 20C7.16794 20 6.78685 19.8426 6.4721 19.5279C6.15737 19.2131 6 18.8321 6 18.3846V5.99999H5.5C5.35768 5.99999 5.23878 5.95224 5.14328 5.85672C5.04776 5.7612 5 5.64229 5 5.49999C5 5.35768 5.04776 5.23877 5.14328 5.14327C5.23878 5.04775 5.35768 4.99999 5.5 4.99999H9C9 4.79358 9.0766 4.61377 9.2298 4.46057C9.38302 4.30735 9.56283 4.23074 9.76923 4.23074H14.2308C14.4372 4.23074 14.617 4.30735 14.7702 4.46057C14.9234 4.61377 15 4.79358 15 4.99999H18.5C18.6423 4.99999 18.7612 5.04775 18.8567 5.14327C18.9522 5.23877 19 5.35768 19 5.49999C19 5.64229 18.9522 5.7612 18.8567 5.85672C18.7612 5.95224 18.6423 5.99999 18.5 5.99999H18V18.3846C18 18.8321 17.8426 19.2131 17.5279 19.5279C17.2132 19.8426 16.8321 20 16.3846 20H7.61537ZM17 5.99999H7V18.3846C7 18.5641 7.05769 18.7115 7.17308 18.8269C7.28846 18.9423 7.43589 19 7.61537 19H16.3846C16.5641 19 16.7115 18.9423 16.8269 18.8269C16.9423 18.7115 17 18.5641 17 18.3846V5.99999ZM9.80768 17H10.8077V7.99999H9.80768V17ZM13.1923 17H14.1923V7.99999H13.1923V17Z" fill="#FC1B13"/>
</g>
</svg>
