<svg width="24" height="24" viewBox="0 0 24 24" fill="none" xmlns="http://www.w3.org/2000/svg">
<g id="right icon">
<path id="Vector" d="M7.61537 20C7.16794 20 6.78685 19.8426 6.4721 19.5279C6.15737 19.2131 6 18.832 6 18.3846V5.99996H5.5C5.35768 5.99996 5.23878 5.9522 5.14328 5.85669C5.04776 5.76117 5 5.64226 5 5.49996C5 5.35765 5.04776 5.23874 5.14328 5.14324C5.23878 5.04772 5.35768 4.99996 5.5 4.99996H9C9 4.79355 9.0766 4.61374 9.2298 4.46054C9.38302 4.30732 9.56283 4.23071 9.76923 4.23071H14.2308C14.4372 4.23071 14.617 4.30732 14.7702 4.46054C14.9234 4.61374 15 4.79355 15 4.99996H18.5C18.6423 4.99996 18.7612 5.04772 18.8567 5.14324C18.9522 5.23874 19 5.35765 19 5.49996C19 5.64226 18.9522 5.76117 18.8567 5.85669C18.7612 5.9522 18.6423 5.99996 18.5 5.99996H18V18.3846C18 18.832 17.8426 19.2131 17.5279 19.5279C17.2132 19.8426 16.8321 20 16.3846 20H7.61537ZM17 5.99996H7V18.3846C7 18.5641 7.05769 18.7115 7.17308 18.8269C7.28846 18.9423 7.43589 19 7.61537 19H16.3846C16.5641 19 16.7115 18.9423 16.8269 18.8269C16.9423 18.7115 17 18.5641 17 18.3846V5.99996ZM9.80768 17H10.8077V7.99996H9.80768V17ZM13.1923 17H14.1923V7.99996H13.1923V17Z" fill="white"/>
</g>
</svg>
