<svg width="32" height="33" viewBox="0 0 32 33" fill="none" xmlns="http://www.w3.org/2000/svg">
<g id="Document">
<path id="Vector" d="M12.0003 23.8333H20.0003C20.1892 23.8333 20.3475 23.7694 20.4753 23.6414C20.6031 23.5135 20.667 23.3549 20.667 23.1658C20.667 22.9766 20.6031 22.8184 20.4753 22.691C20.3475 22.5637 20.1892 22.5 20.0003 22.5H12.0003C11.8114 22.5 11.6531 22.564 11.5253 22.6919C11.3975 22.8199 11.3337 22.9784 11.3337 23.1676C11.3337 23.3567 11.3975 23.515 11.5253 23.6423C11.6531 23.7697 11.8114 23.8333 12.0003 23.8333ZM12.0003 18.5H20.0003C20.1892 18.5 20.3475 18.436 20.4753 18.3081C20.6031 18.1801 20.667 18.0216 20.667 17.8324C20.667 17.6433 20.6031 17.485 20.4753 17.3577C20.3475 17.2303 20.1892 17.1667 20.0003 17.1667H12.0003C11.8114 17.1667 11.6531 17.2306 11.5253 17.3586C11.3975 17.4865 11.3337 17.6451 11.3337 17.8342C11.3337 18.0234 11.3975 18.1816 11.5253 18.309C11.6531 18.4363 11.8114 18.5 12.0003 18.5ZM8.82083 28.5C8.20716 28.5 7.69477 28.2944 7.28366 27.8833C6.87255 27.4722 6.66699 26.9598 6.66699 26.3462V6.65383C6.66699 6.04017 6.87255 5.52778 7.28366 5.11667C7.69477 4.70556 8.20716 4.5 8.82083 4.5H18.4388C18.7336 4.5 19.0145 4.55812 19.2817 4.67437C19.5488 4.79059 19.7789 4.94529 19.9721 5.13847L24.6952 9.86153C24.8884 10.0547 25.0431 10.2849 25.1593 10.552C25.2755 10.8191 25.3337 11.1001 25.3337 11.3949V26.3462C25.3337 26.9598 25.1281 27.4722 24.717 27.8833C24.3059 28.2944 23.7935 28.5 23.1798 28.5H8.82083ZM18.667 10.1V5.83333H8.82083C8.61571 5.83333 8.42768 5.9188 8.25673 6.08973C8.08579 6.26069 8.00033 6.44872 8.00033 6.65383V26.3462C8.00033 26.5513 8.08579 26.7393 8.25673 26.9103C8.42768 27.0812 8.61571 27.1667 8.82083 27.1667H23.1798C23.3849 27.1667 23.573 27.0812 23.7439 26.9103C23.9149 26.7393 24.0003 26.5513 24.0003 26.3462V11.1667H19.7332C19.4309 11.1667 19.1777 11.0644 18.9734 10.86C18.7691 10.6556 18.667 10.4022 18.667 10.1Z" fill="#1D2023"/>
</g>
</svg>
