<svg width="33" height="32" viewBox="0 0 33 32" fill="none" xmlns="http://www.w3.org/2000/svg">
<g id="Done">
<path id="Vector" d="M13.2335 21.1744L24.9694 9.43851C25.0993 9.3086 25.2536 9.23936 25.4323 9.23081C25.6109 9.22225 25.7737 9.29149 25.9207 9.43851C26.0677 9.58551 26.1412 9.74405 26.1412 9.91414C26.1412 10.0842 26.0677 10.2428 25.9207 10.3898L13.9874 22.3231C13.772 22.5385 13.5207 22.6462 13.2335 22.6462C12.9464 22.6462 12.6951 22.5385 12.4797 22.3231L7.07971 16.9231C6.94977 16.7932 6.88182 16.6389 6.87584 16.4603C6.86986 16.2817 6.94037 16.1188 7.08737 15.9718C7.23439 15.8248 7.39295 15.7513 7.56304 15.7513C7.73313 15.7513 7.89167 15.8248 8.03867 15.9718L13.2335 21.1744Z" fill="white"/>
</g>
</svg>
