<svg width="24" height="25" viewBox="0 0 24 25" fill="none" xmlns="http://www.w3.org/2000/svg">
<g id="Done">
<path id="Vector" d="M9.54979 16.3806L18.3517 7.57867C18.4491 7.48123 18.5649 7.42931 18.6988 7.42289C18.8328 7.41648 18.9549 7.4684 19.0652 7.57867C19.1754 7.68892 19.2306 7.80783 19.2306 7.93539C19.2306 8.06296 19.1754 8.18187 19.0652 8.29212L10.1152 17.2421C9.95363 17.4037 9.76517 17.4844 9.54979 17.4844C9.3344 17.4844 9.14595 17.4037 8.98441 17.2421L4.93441 13.1921C4.83696 13.0947 4.786 12.979 4.78151 12.845C4.77703 12.711 4.82991 12.5889 4.94016 12.4787C5.05043 12.3684 5.16935 12.3133 5.29691 12.3133C5.42448 12.3133 5.54339 12.3684 5.65364 12.4787L9.54979 16.3806Z" fill="#323336"/>
</g>
</svg>
