<svg width="25" height="24" viewBox="0 0 25 24" fill="none" xmlns="http://www.w3.org/2000/svg">
<g id="Done">
<path id="Vector" d="M10.0498 15.8808L18.8517 7.07885C18.9491 6.98142 19.0649 6.92949 19.1988 6.92308C19.3328 6.91666 19.4549 6.96858 19.5652 7.07885C19.6754 7.1891 19.7306 7.30801 19.7306 7.43558C19.7306 7.56314 19.6754 7.68205 19.5652 7.7923L10.6152 16.7423C10.4536 16.9039 10.2652 16.9846 10.0498 16.9846C9.8344 16.9846 9.64595 16.9039 9.48441 16.7423L5.43441 12.6923C5.33696 12.5949 5.286 12.4792 5.28151 12.3452C5.27703 12.2112 5.32991 12.0891 5.44016 11.9789C5.55043 11.8686 5.66935 11.8135 5.79691 11.8135C5.92448 11.8135 6.04339 11.8686 6.15364 11.9789L10.0498 15.8808Z" fill="#4BB543"/>
</g>
</svg>
