<svg width="24" height="24" viewBox="0 0 24 24" fill="none" xmlns="http://www.w3.org/2000/svg">
<g id="Edit">
<path id="Vector" d="M5.30764 19H6.38072L16.2749 9.10579L15.2019 8.03271L5.30764 17.9269V19ZM18.4153 8.38656L15.9153 5.89809L17.1422 4.67116C17.3333 4.48013 17.5701 4.38461 17.8528 4.38461C18.1355 4.38461 18.3724 4.48013 18.5634 4.67116L19.6365 5.74424C19.8275 5.93527 19.9249 6.17021 19.9288 6.44904C19.9326 6.72789 19.8391 6.96283 19.648 7.15386L18.4153 8.38656ZM5.11532 20C4.88327 20 4.69064 19.9234 4.53744 19.7702C4.38423 19.617 4.30762 19.4244 4.30762 19.1923V17.8289C4.30762 17.7212 4.32621 17.6208 4.36339 17.5279C4.40058 17.4349 4.46276 17.3449 4.54994 17.2577L15.1961 6.61154L17.6961 9.11156L7.04994 19.7577C6.96276 19.8449 6.87269 19.9071 6.77974 19.9442C6.68679 19.9814 6.58648 20 6.47879 20H5.11532ZM15.7288 8.55964L15.2019 8.03271L16.2749 9.10579L15.7288 8.55964Z" fill="#1D2023"/>
</g>
</svg>
