<svg width="24" height="22" viewBox="0 0 24 22" fill="none" xmlns="http://www.w3.org/2000/svg">
<g id="Group 1">
<path id="Vector" d="M14.133 19.8334H3.46634C2.28813 19.8334 1.33301 18.9048 1.33301 17.7593V3.24076C1.33301 2.09528 2.28813 1.16669 3.46634 1.16669H20.533C21.7112 1.16669 22.6663 2.09528 22.6663 3.24076V11.5371" stroke="#1D2023" stroke-width="1.3" stroke-linecap="round"/>
<path id="Vector_2" d="M1.33301 5.16669H22.6663" stroke="#1D2023" stroke-width="1.2" stroke-linecap="round" stroke-linejoin="round"/>
<path id="Vector_3" d="M21.7775 17.8333H18.2219M21.7775 17.8333H22.0263C22.3798 17.8333 22.6663 18.0891 22.6663 18.4048V20.5952C22.6663 20.9109 22.3798 21.1667 22.0263 21.1667H17.973C17.6195 21.1667 17.333 20.9109 17.333 20.5952V18.4048C17.333 18.0891 17.6195 17.8333 17.973 17.8333H18.2219H21.7775ZM21.7775 17.8333V16.1667C21.7775 15.6111 21.4219 14.5 19.9997 14.5C18.5775 14.5 18.2219 15.6111 18.2219 16.1667V17.8333H21.7775Z" stroke="#1D2023" stroke-width="1.2" stroke-linecap="round" stroke-linejoin="round"/>
</g>
</svg>
