<svg width="38" height="39" viewBox="0 0 38 39" fill="none" xmlns="http://www.w3.org/2000/svg">
<g clip-path="url(#clip0_2097_2316)">
<path d="M37.9804 19.8645C37.9804 18.2667 37.8511 17.1008 37.5713 15.8916H19.3789V23.1033H30.0574C29.8422 24.8955 28.6796 27.5946 26.0961 29.4082L26.0598 29.6497L31.8119 34.1187L32.2105 34.1586C35.8704 30.7686 37.9804 25.7808 37.9804 19.8645Z" fill="#4285F4"/>
<path d="M19.3781 38.8659C24.6097 38.8659 29.0016 37.1385 32.2096 34.1589L26.0952 29.4084C24.459 30.5528 22.263 31.3517 19.3781 31.3517C14.2541 31.3517 9.9052 27.9619 8.35493 23.2764L8.1277 23.2957L2.14658 27.9381L2.06836 28.1561C5.25469 34.5042 11.7997 38.8659 19.3781 38.8659Z" fill="#34A853"/>
<path d="M8.3553 23.2765C7.94625 22.0674 7.70952 20.7718 7.70952 19.4331C7.70952 18.0943 7.94625 16.7988 8.33378 15.5897L8.32295 15.3322L2.26688 10.6152L2.06873 10.7098C0.755493 13.344 0.00195312 16.3022 0.00195312 19.4331C0.00195312 22.564 0.755493 25.522 2.06873 28.1563L8.3553 23.2765Z" fill="#FBBC05"/>
<path d="M19.3781 7.51405C23.0165 7.51405 25.4708 9.09027 26.8703 10.4075L32.3388 5.05258C28.9803 1.92172 24.6097 0 19.3781 0C11.7997 0 5.25469 4.3616 2.06836 10.7097L8.33341 15.5896C9.9052 10.9041 14.2541 7.51405 19.3781 7.51405Z" fill="#EB4335"/>
</g>
<defs>
<clipPath id="clip0_2097_2316">
<rect width="38" height="39" fill="white"/>
</clipPath>
</defs>
</svg>
