<svg width="16" height="16" viewBox="0 0 16 16" fill="none" xmlns="http://www.w3.org/2000/svg">
<g id="Info">
<path id="Vector" d="M8.00045 11C8.09503 11 8.17415 10.9681 8.23782 10.9042C8.3015 10.8403 8.33333 10.7611 8.33333 10.6667V7.66667C8.33333 7.57222 8.30134 7.49306 8.23737 7.42917C8.1734 7.36528 8.09413 7.33333 7.99955 7.33333C7.90497 7.33333 7.82585 7.36528 7.76218 7.42917C7.69851 7.49306 7.66667 7.57222 7.66667 7.66667V10.6667C7.66667 10.7611 7.69866 10.8403 7.76263 10.9042C7.8266 10.9681 7.90587 11 8.00045 11ZM8 6.38462C8.11624 6.38462 8.21368 6.3453 8.29232 6.26667C8.37094 6.18803 8.41025 6.09059 8.41025 5.97435C8.41025 5.85812 8.37094 5.76068 8.29232 5.68205C8.21368 5.60342 8.11624 5.5641 8 5.5641C7.88376 5.5641 7.78632 5.60342 7.70768 5.68205C7.62906 5.76068 7.58975 5.85812 7.58975 5.97435C7.58975 6.09059 7.62906 6.18803 7.70768 6.26667C7.78632 6.3453 7.88376 6.38462 8 6.38462ZM8.00223 14C7.17253 14 6.39248 13.8426 5.66207 13.5277C4.93166 13.2128 4.29629 12.7855 3.75598 12.2457C3.21568 11.7059 2.78794 11.0711 2.47277 10.3414C2.15759 9.61163 2 8.83192 2 8.00223C2 7.17253 2.15744 6.39248 2.47232 5.66207C2.78721 4.93166 3.21455 4.29629 3.75435 3.75598C4.29415 3.21568 4.92891 2.78794 5.65863 2.47277C6.38837 2.15759 7.16808 2 7.99777 2C8.82747 2 9.60752 2.15744 10.3379 2.47232C11.0683 2.78721 11.7037 3.21455 12.244 3.75435C12.7843 4.29415 13.2121 4.92891 13.5272 5.65863C13.8424 6.38837 14 7.16808 14 7.99777C14 8.82747 13.8426 9.60752 13.5277 10.3379C13.2128 11.0683 12.7855 11.7037 12.2457 12.244C11.7059 12.7843 11.0711 13.2121 10.3414 13.5272C9.61163 13.8424 8.83192 14 8.00223 14ZM8 13.3333C9.48889 13.3333 10.75 12.8167 11.7833 11.7833C12.8167 10.75 13.3333 9.48889 13.3333 8C13.3333 6.51111 12.8167 5.25 11.7833 4.21667C10.75 3.18333 9.48889 2.66667 8 2.66667C6.51111 2.66667 5.25 3.18333 4.21667 4.21667C3.18333 5.25 2.66667 6.51111 2.66667 8C2.66667 9.48889 3.18333 10.75 4.21667 11.7833C5.25 12.8167 6.51111 13.3333 8 13.3333Z" fill="#1463F3"/>
</g>
</svg>
