<svg width="24" height="24" viewBox="0 0 24 24" fill="none" xmlns="http://www.w3.org/2000/svg">
<g id="Inline_code">
<path id="Vector" d="M4.11354 12.0061L8.35391 16.2464C8.4475 16.34 8.4975 16.4548 8.50391 16.5907C8.51033 16.7266 8.46033 16.8477 8.35391 16.9541C8.2475 17.0605 8.12955 17.1138 8.00006 17.1138C7.87058 17.1138 7.75263 17.0605 7.64621 16.9541L3.25776 12.5657C3.17058 12.4785 3.10936 12.3894 3.07409 12.2984C3.03884 12.2073 3.02121 12.108 3.02121 12.0003C3.02121 11.8926 3.03884 11.7932 3.07409 11.7022C3.10936 11.6112 3.17058 11.5221 3.25776 11.4349L6.63274 8.0599L3.09429 4.52143C2.99686 4.42399 2.94493 4.30829 2.93851 4.17433C2.93211 4.04034 2.98404 3.91823 3.09429 3.80798C3.20454 3.69771 3.32345 3.64258 3.45101 3.64258C3.57858 3.64258 3.6975 3.69771 3.80776 3.80798L20.1924 20.1926C20.2898 20.29 20.3417 20.4048 20.3481 20.5368C20.3546 20.6689 20.3026 20.79 20.1924 20.9003C20.0821 21.0105 19.9632 21.0657 19.8356 21.0657C19.7081 21.0657 19.5892 21.0105 19.4789 20.9003L7.34622 8.77335L4.11354 12.0061ZM18.0597 15.2484L17.3462 14.5349L19.8866 11.9945L15.6462 7.75413C15.5526 7.66054 15.5026 7.5458 15.4962 7.4099C15.4898 7.274 15.5398 7.15284 15.6462 7.04643C15.7526 6.94001 15.8706 6.8868 16.0001 6.8868C16.1295 6.8868 16.2475 6.94001 16.3539 7.04643L20.7424 11.4349C20.8295 11.5221 20.8908 11.6112 20.926 11.7022C20.9613 11.7932 20.9789 11.8926 20.9789 12.0003C20.9789 12.108 20.9613 12.2073 20.926 12.2984C20.8908 12.3894 20.8295 12.4785 20.7424 12.5657L18.0597 15.2484Z" fill="#323336"/>
</g>
</svg>
