<svg width="24" height="24" viewBox="0 0 24 24" fill="none" xmlns="http://www.w3.org/2000/svg">
<g id="left icon">
<path id="Vector" d="M5.30764 19H6.38072L16.2749 9.10582L15.2019 8.03274L5.30764 17.927V19ZM18.4153 8.38659L15.9153 5.89812L17.1422 4.67119C17.3333 4.48016 17.5701 4.38464 17.8528 4.38464C18.1355 4.38464 18.3724 4.48016 18.5634 4.67119L19.6365 5.74427C19.8275 5.9353 19.9249 6.17024 19.9288 6.44907C19.9326 6.72792 19.8391 6.96286 19.648 7.15389L18.4153 8.38659ZM5.11532 20C4.88327 20 4.69064 19.9234 4.53744 19.7702C4.38423 19.617 4.30762 19.4244 4.30762 19.1924V17.8289C4.30762 17.7212 4.32621 17.6209 4.36339 17.5279C4.40058 17.435 4.46276 17.3449 4.54994 17.2577L15.1961 6.61157L17.6961 9.11159L7.04994 19.7577C6.96276 19.8449 6.87269 19.9071 6.77974 19.9443C6.68679 19.9815 6.58648 20 6.47879 20H5.11532ZM15.7288 8.55967L15.2019 8.03274L16.2749 9.10582L15.7288 8.55967Z" fill="#1463F3"/>
</g>
</svg>
