<svg width="24" height="24" viewBox="0 0 24 24" fill="none" xmlns="http://www.w3.org/2000/svg">
<g id="Link">
<path id="Vector" d="M7.07692 16.0767C5.94897 16.0767 4.9875 15.6793 4.1925 14.8845C3.3975 14.0897 3 13.1285 3 12.0009C3 10.8732 3.3975 9.91164 4.1925 9.11613C4.9875 8.32061 5.94897 7.92285 7.07692 7.92285H10.1154C10.257 7.92285 10.3758 7.97084 10.4716 8.0668C10.5675 8.16275 10.6154 8.28166 10.6154 8.42353C10.6154 8.56538 10.5675 8.68406 10.4716 8.77958C10.3758 8.87509 10.257 8.92285 10.1154 8.92285H7.07465C6.23002 8.92285 5.50642 9.22414 4.90385 9.8267C4.30128 10.4293 4 11.1536 4 11.9998C4 12.8459 4.30128 13.5703 4.90385 14.1729C5.50642 14.7754 6.23002 15.0767 7.07465 15.0767H10.1154C10.257 15.0767 10.3758 15.1247 10.4716 15.2207C10.5675 15.3166 10.6154 15.4355 10.6154 15.5774C10.6154 15.7192 10.5675 15.8379 10.4716 15.9334C10.3758 16.0289 10.257 16.0767 10.1154 16.0767H7.07692ZM9 12.4998C8.85833 12.4998 8.73958 12.4518 8.64375 12.3558C8.54792 12.2599 8.5 12.141 8.5 11.9991C8.5 11.8572 8.54792 11.7386 8.64375 11.6431C8.73958 11.5475 8.85833 11.4998 9 11.4998H15C15.1417 11.4998 15.2604 11.5478 15.3562 11.6437C15.4521 11.7397 15.5 11.8586 15.5 12.0005C15.5 12.1423 15.4521 12.261 15.3562 12.3565C15.2604 12.452 15.1417 12.4998 15 12.4998H9ZM13.8846 16.0767C13.743 16.0767 13.6242 16.0287 13.5284 15.9328C13.4325 15.8368 13.3846 15.7179 13.3846 15.576C13.3846 15.4342 13.4325 15.3155 13.5284 15.22C13.6242 15.1245 13.743 15.0767 13.8846 15.0767H16.9253C17.77 15.0767 18.4936 14.7754 19.0962 14.1729C19.6987 13.5703 20 12.8459 20 11.9998C20 11.1536 19.6987 10.4293 19.0962 9.8267C18.4936 9.22414 17.77 8.92285 16.9253 8.92285H13.8846C13.743 8.92285 13.6242 8.87487 13.5284 8.7789C13.4325 8.68295 13.3846 8.56404 13.3846 8.42218C13.3846 8.28031 13.4325 8.16163 13.5284 8.06613C13.6242 7.97061 13.743 7.92285 13.8846 7.92285H16.9231C18.051 7.92285 19.0125 8.32024 19.8075 9.11503C20.6025 9.90983 21 10.8711 21 11.9987C21 13.1263 20.6025 14.0879 19.8075 14.8834C19.0125 15.6789 18.051 16.0767 16.9231 16.0767H13.8846Z" fill="#323336"/>
</g>
</svg>
