<svg width="32" height="32" viewBox="0 0 32 32" fill="none" xmlns="http://www.w3.org/2000/svg">
<g id="Notification_indicator">
<path id="Vector" d="M24.1781 14.6667C24.954 21.834 28 24 28 24H4C4 24 8 21.1556 8 11.2C8 8.93682 8.84285 6.76634 10.3431 5.16603C11.8434 3.56571 13.8783 2.66667 16 2.66667C16.4497 2.66667 16.8956 2.70707 17.3333 2.78599" stroke="#1D2023" stroke-linecap="round" stroke-linejoin="round"/>
<path id="Vector_2" d="M25.333 10.6667C27.5422 10.6667 29.333 8.87581 29.333 6.66667C29.333 4.45754 27.5422 2.66667 25.333 2.66667C23.1238 2.66667 21.333 4.45754 21.333 6.66667C21.333 8.87581 23.1238 10.6667 25.333 10.6667Z" fill="#FC1B13" stroke="#FC1B13" stroke-linecap="round" stroke-linejoin="round"/>
<path id="Vector_3" d="M18.3067 28C18.0723 28.4041 17.7359 28.7396 17.331 28.9727C16.9262 29.2059 16.4672 29.3287 16 29.3287C15.5328 29.3287 15.0739 29.2059 14.6691 28.9727C14.2643 28.7396 13.9278 28.4041 13.6934 28" stroke="#1D2023" stroke-linecap="round" stroke-linejoin="round"/>
</g>
</svg>
