<svg width="24" height="24" viewBox="0 0 24 24" fill="none" xmlns="http://www.w3.org/2000/svg">
<g id="Ordered_list">
<path id="Vector" d="M4.4423 21C4.31452 21 4.20886 20.9583 4.12533 20.875C4.04178 20.7916 4 20.6861 4 20.5586C4 20.4311 4.04178 20.3253 4.12533 20.2414C4.20886 20.1574 4.31452 20.1154 4.4423 20.1154H6.5V18.75H5.4423C5.31452 18.75 5.20886 18.7083 5.12533 18.6249C5.04177 18.5416 5 18.4361 5 18.3086C5 18.1811 5.04177 18.0753 5.12533 17.9914C5.20886 17.9074 5.31452 17.8654 5.4423 17.8654H6.5V16.5H4.4423C4.31452 16.5 4.20886 16.4583 4.12533 16.3749C4.04178 16.2916 4 16.1861 4 16.0586C4 15.9311 4.04178 15.8253 4.12533 15.7414C4.20886 15.6574 4.31452 15.6154 4.4423 15.6154H6.6923C6.88845 15.6154 7.05288 15.6817 7.18558 15.8144C7.31828 15.9471 7.38463 16.1115 7.38463 16.3077V17.6923C7.38463 17.8885 7.31828 18.0529 7.18558 18.1856C7.05288 18.3183 6.88845 18.3846 6.6923 18.3846C6.88845 18.3846 7.05288 18.451 7.18558 18.5837C7.31828 18.7164 7.38463 18.8808 7.38463 19.0769V20.3077C7.38463 20.5038 7.31828 20.6683 7.18558 20.801C7.05288 20.9337 6.88845 21 6.6923 21H4.4423ZM4.61538 14.6923C4.44999 14.6923 4.30608 14.6311 4.18365 14.5087C4.06122 14.3862 4 14.2423 4 14.0769V12.25C4 12.0539 4.06634 11.8894 4.19902 11.7567C4.33172 11.624 4.49615 11.5577 4.6923 11.5577H6.5V10.1923H4.4423C4.31452 10.1923 4.20886 10.1506 4.12533 10.0673C4.04178 9.98387 4 9.87842 4 9.7509C4 9.62338 4.04178 9.51763 4.12533 9.43365C4.20886 9.34968 4.31452 9.3077 4.4423 9.3077H6.6923C6.88845 9.3077 7.05288 9.37404 7.18558 9.50672C7.31828 9.63942 7.38463 9.80385 7.38463 10V11.75C7.38463 11.9461 7.31828 12.1106 7.18558 12.2433C7.05288 12.376 6.88845 12.4423 6.6923 12.4423H4.88462V13.8077H6.9423C7.07008 13.8077 7.17575 13.8494 7.2593 13.9327C7.34285 14.0161 7.38463 14.1216 7.38463 14.2491C7.38463 14.3766 7.34285 14.4824 7.2593 14.5663C7.17575 14.6503 7.07008 14.6923 6.9423 14.6923H4.61538ZM5.9432 8.38463C5.81568 8.38463 5.70993 8.34285 5.62595 8.2593C5.54198 8.17575 5.5 8.07008 5.5 7.9423V3.88463H4.4423C4.31452 3.88463 4.20886 3.84293 4.12533 3.75955C4.04178 3.67617 4 3.57072 4 3.4432C4 3.31568 4.04178 3.20993 4.12533 3.12595C4.20886 3.04198 4.31452 3 4.4423 3H5.78845C5.95383 3 6.09454 3.05801 6.21058 3.17402C6.32661 3.29006 6.38462 3.43077 6.38462 3.59615V7.9423C6.38462 8.07008 6.34293 8.17575 6.25955 8.2593C6.17617 8.34285 6.07072 8.38463 5.9432 8.38463ZM10.1154 18.5C9.97371 18.5 9.85496 18.452 9.75912 18.3561C9.66329 18.2601 9.61538 18.1412 9.61538 17.9993C9.61538 17.8575 9.66329 17.7388 9.75912 17.6433C9.85496 17.5478 9.97371 17.5 10.1154 17.5H19.5C19.6417 17.5 19.7604 17.548 19.8562 17.644C19.9521 17.7399 20 17.8588 20 18.0007C20 18.1425 19.9521 18.2612 19.8562 18.3567C19.7604 18.4522 19.6417 18.5 19.5 18.5H10.1154ZM10.1154 12.5C9.97371 12.5 9.85496 12.452 9.75912 12.3561C9.66329 12.2601 9.61538 12.1412 9.61538 11.9993C9.61538 11.8575 9.66329 11.7388 9.75912 11.6433C9.85496 11.5478 9.97371 11.5 10.1154 11.5H19.5C19.6417 11.5 19.7604 11.548 19.8562 11.644C19.9521 11.7399 20 11.8588 20 12.0007C20 12.1425 19.9521 12.2612 19.8562 12.3567C19.7604 12.4522 19.6417 12.5 19.5 12.5H10.1154ZM10.1154 6.5C9.97371 6.5 9.85496 6.45202 9.75912 6.35605C9.66329 6.2601 9.61538 6.14119 9.61538 5.99933C9.61538 5.85746 9.66329 5.73878 9.75912 5.64328C9.85496 5.54776 9.97371 5.5 10.1154 5.5H19.5C19.6417 5.5 19.7604 5.54798 19.8562 5.64395C19.9521 5.7399 20 5.85881 20 6.00067C20 6.14254 19.9521 6.26122 19.8562 6.35672C19.7604 6.45224 19.6417 6.5 19.5 6.5H10.1154Z" fill="#323336"/>
</g>
</svg>
