<svg width="32" height="33" viewBox="0 0 32 33" fill="none" xmlns="http://www.w3.org/2000/svg">
<g id="Plan">
<path id="Vector" d="M18.0769 28.1103C17.8207 28.365 17.5033 28.4923 17.1245 28.4923C16.7458 28.4923 16.4291 28.365 16.1744 28.1103L4.44103 16.3769C4.29914 16.235 4.19017 16.0793 4.1141 15.9096C4.03803 15.7399 4 15.559 4 15.3667V5.83333C4 5.47607 4.1329 5.16452 4.3987 4.8987C4.66452 4.6329 4.97607 4.5 5.33333 4.5H14.8667C15.0393 4.5 15.211 4.53518 15.3817 4.60553C15.5525 4.67591 15.7004 4.77064 15.8256 4.88973L27.559 16.6308C27.8308 16.9026 27.9709 17.2312 27.9795 17.6167C27.988 18.0021 27.865 18.3222 27.6103 18.5769L18.0769 28.1103ZM17.1142 27.1667L26.659 17.6333L14.8781 5.83333H5.33333V15.3667L17.1142 27.1667ZM8.66367 10.5C9.0332 10.5 9.3483 10.3707 9.60897 10.112C9.86966 9.85331 10 9.53921 10 9.1697C10 8.80014 9.87067 8.48503 9.612 8.22437C9.35333 7.96368 9.03922 7.83333 8.66967 7.83333C8.30013 7.83333 7.98503 7.96267 7.72437 8.22133C7.46368 8.48002 7.33333 8.79412 7.33333 9.16363C7.33333 9.53319 7.46267 9.8483 7.72133 10.109C7.98 10.3697 8.29411 10.5 8.66367 10.5Z" fill="#1D2023"/>
</g>
</svg>
