<svg width="25" height="24" viewBox="0 0 25 24" fill="none" xmlns="http://www.w3.org/2000/svg">
<g id="right icon">
<path id="Vector" d="M12 12.5H7C6.85833 12.5 6.73958 12.452 6.64375 12.3561C6.54792 12.2601 6.5 12.1412 6.5 11.9993C6.5 11.8575 6.54792 11.7388 6.64375 11.6433C6.73958 11.5478 6.85833 11.5 7 11.5H12V6.5C12 6.35833 12.048 6.23958 12.1439 6.14375C12.2399 6.04792 12.3588 6 12.5007 6C12.6425 6 12.7612 6.04792 12.8567 6.14375C12.9522 6.23958 13 6.35833 13 6.5V11.5H18C18.1417 11.5 18.2604 11.548 18.3562 11.6439C18.4521 11.7399 18.5 11.8588 18.5 12.0007C18.5 12.1425 18.4521 12.2612 18.3562 12.3567C18.2604 12.4522 18.1417 12.5 18 12.5H13V17.5C13 17.6417 12.952 17.7604 12.8561 17.8562C12.7601 17.9521 12.6412 18 12.4993 18C12.3575 18 12.2388 17.9521 12.1433 17.8562C12.0478 17.7604 12 17.6417 12 17.5V12.5Z" fill="white"/>
</g>
</svg>
