<svg width="24" height="24" viewBox="0 0 24 24" fill="none" xmlns="http://www.w3.org/2000/svg">
<g id="Quote">
<path id="Vector" d="M14.5 11.5H18.5V7.5H14.5V11.5ZM5.5 11.5H9.5V7.5H5.5V11.5ZM17.3288 16.5C17.1109 16.5 16.9455 16.4093 16.8327 16.2279C16.7199 16.0465 16.7096 15.859 16.8019 15.6654L18.2308 12.5H14.5C14.232 12.5 13.9984 12.4003 13.799 12.201C13.5997 12.0016 13.5 11.768 13.5 11.5V7.5C13.5 7.23205 13.5997 6.99839 13.799 6.79902C13.9984 6.59967 14.232 6.5 14.5 6.5H18.5C18.768 6.5 19.0016 6.59967 19.201 6.79902C19.4003 6.99839 19.5 7.23205 19.5 7.5V12.1404C19.5 12.2519 19.4875 12.3644 19.4625 12.4779C19.4375 12.5914 19.4026 12.7019 19.3577 12.8096L17.8558 16.1731C17.8032 16.2782 17.7327 16.359 17.6442 16.4154C17.5558 16.4718 17.4507 16.5 17.3288 16.5ZM8.32885 16.5C8.1109 16.5 7.94551 16.4093 7.83268 16.2279C7.71986 16.0465 7.70961 15.859 7.80192 15.6654L9.23075 12.5H5.5C5.23205 12.5 4.99839 12.4003 4.79902 12.201C4.59967 12.0016 4.5 11.768 4.5 11.5V7.5C4.5 7.23205 4.59967 6.99839 4.79902 6.79902C4.99839 6.59967 5.23205 6.5 5.5 6.5H9.5C9.76795 6.5 10.0016 6.59967 10.201 6.79902C10.4003 6.99839 10.5 7.23205 10.5 7.5V12.1404C10.5 12.2519 10.4875 12.3644 10.4625 12.4779C10.4375 12.5914 10.4026 12.7019 10.3577 12.8096L8.85577 16.1731C8.80321 16.2782 8.73269 16.359 8.64423 16.4154C8.55578 16.4718 8.45065 16.5 8.32885 16.5Z" fill="#323336"/>
</g>
</svg>
