<svg width="24" height="24" viewBox="0 0 24 24" fill="none" xmlns="http://www.w3.org/2000/svg">
<g id="right icon">
<path id="Vector" d="M19.1175 12.4808H3.48096C3.33929 12.4808 3.22054 12.4328 3.12471 12.3368C3.02887 12.2409 2.98096 12.122 2.98096 11.9801C2.98096 11.8382 3.02887 11.7196 3.12471 11.624C3.22054 11.5285 3.33929 11.4808 3.48096 11.4808H19.1175L14.3194 6.67693C14.2301 6.58655 14.1834 6.47357 14.1794 6.33798C14.1753 6.20242 14.222 6.0848 14.3194 5.98513C14.4087 5.89377 14.5224 5.84808 14.6604 5.84808C14.7985 5.84808 14.9143 5.89488 15.0079 5.98846L20.4348 11.4154C20.522 11.5026 20.5832 11.5925 20.6185 11.6853C20.6537 11.778 20.6713 11.8774 20.6713 11.9833C20.6713 12.0893 20.6534 12.1917 20.6176 12.2904C20.5817 12.3891 20.5208 12.4808 20.4348 12.5654L15.0079 17.9923C14.9175 18.0859 14.8045 18.1327 14.6689 18.1327C14.5333 18.1327 14.4168 18.0859 14.3194 17.9923C14.2092 17.8949 14.1572 17.776 14.1636 17.6356C14.17 17.4952 14.222 17.3763 14.3194 17.2789L19.1175 12.4808Z" fill="#1463F3"/>
</g>
</svg>
