<svg width="25" height="24" viewBox="0 0 25 24" fill="none" xmlns="http://www.w3.org/2000/svg">
<g id="right icon">
<path id="Vector" d="M19.617 12.4804H3.98047C3.8388 12.4804 3.72005 12.4324 3.62422 12.3364C3.52839 12.2404 3.48047 12.1215 3.48047 11.9797C3.48047 11.8378 3.52839 11.7191 3.62422 11.6236C3.72005 11.5281 3.8388 11.4804 3.98047 11.4804H19.617L14.8189 6.67651C14.7296 6.58612 14.6829 6.47314 14.6789 6.33756C14.6748 6.20199 14.7215 6.08437 14.8189 5.98471C14.9082 5.89334 15.0219 5.84766 15.1599 5.84766C15.298 5.84766 15.4138 5.89445 15.5074 5.98803L20.9343 11.415C21.0215 11.5021 21.0827 11.5921 21.118 11.6848C21.1532 11.7776 21.1708 11.8769 21.1708 11.9829C21.1708 12.0889 21.1529 12.1912 21.1171 12.29C21.0813 12.3887 21.0203 12.4803 20.9343 12.565L15.5074 17.9919C15.417 18.0855 15.304 18.1323 15.1684 18.1323C15.0329 18.1323 14.9164 18.0855 14.8189 17.9919C14.7087 17.8944 14.6567 17.7755 14.6631 17.6352C14.6696 17.4948 14.7215 17.3759 14.8189 17.2784L19.617 12.4804Z" fill="white"/>
</g>
</svg>
