<svg width="32" height="32" viewBox="0 0 32 32" fill="none" xmlns="http://www.w3.org/2000/svg">
<g id="settings_32">
<path id="Vector" d="M17.4003 27.906H14.566C14.3373 27.906 14.1333 27.831 13.9541 27.6811C13.7749 27.5311 13.6725 27.3322 13.6469 27.0842L13.2349 24.1051C12.8264 23.9863 12.3404 23.7716 11.777 23.4609C11.2136 23.1502 10.7009 22.7996 10.2388 22.409L7.53064 23.6521C7.30553 23.7519 7.07615 23.76 6.84251 23.6765C6.60884 23.5931 6.43381 23.4355 6.31741 23.2039L4.86781 20.694C4.74872 20.4843 4.71946 20.2604 4.78001 20.0222C4.84054 19.784 4.96454 19.5989 5.15201 19.4667L7.58021 17.6556C7.52894 17.392 7.49177 17.1236 7.46868 16.8504C7.44561 16.5772 7.43408 16.3023 7.43408 16.0256C7.43408 15.7897 7.44653 15.5296 7.47144 15.2453C7.49638 14.961 7.53021 14.6544 7.57294 14.3256L5.14474 12.5272C4.96212 12.3885 4.83777 12.2009 4.77168 11.9642C4.70557 11.7275 4.73761 11.505 4.86781 11.2966L6.31324 8.79653C6.45104 8.61079 6.62857 8.47321 6.84581 8.38376C7.06303 8.29429 7.28277 8.29942 7.50501 8.39913L10.2392 9.58503C10.6637 9.24087 11.1378 8.91437 11.6616 8.60553C12.1854 8.29671 12.7013 8.0648 13.2093 7.90983L13.6469 4.88246C13.6725 4.65044 13.7741 4.45945 13.9516 4.30949C14.129 4.15956 14.3367 4.08459 14.5747 4.08459H17.409C17.6377 4.08459 17.8452 4.16014 18.0316 4.31123C18.2181 4.46229 18.3334 4.65271 18.3777 4.88246L18.7896 7.91109C19.323 8.10398 19.8256 8.33753 20.2975 8.61173C20.7695 8.88595 21.2257 9.21038 21.6661 9.58503L24.5156 8.39623C24.7143 8.29845 24.9262 8.28667 25.1514 8.3609C25.3766 8.43509 25.5539 8.57505 25.6832 8.78076L27.1328 11.2915C27.263 11.4998 27.2988 11.7232 27.2401 11.9616C27.1814 12.2 27.0566 12.3864 26.8658 12.5207L24.3136 14.3904C24.3745 14.6896 24.417 14.9689 24.4409 15.228C24.4648 15.4871 24.4768 15.7423 24.4768 15.9936C24.4768 16.2278 24.4627 16.4757 24.4345 16.7374C24.4063 16.999 24.3627 17.2962 24.3037 17.6288L26.8297 19.4636C27.0195 19.5833 27.1411 19.765 27.1945 20.0088C27.248 20.2526 27.2119 20.4786 27.0862 20.6868L25.6537 23.2351C25.5073 23.4482 25.3221 23.5888 25.0981 23.6571C24.8742 23.7253 24.654 23.7095 24.4375 23.6098L21.6661 22.3739C21.2201 22.7653 20.7605 23.1077 20.2872 23.4011C19.8139 23.6944 19.3147 23.9205 18.7896 24.0795L18.3777 27.0842C18.3361 27.3322 18.2223 27.5311 18.0362 27.6811C17.8502 27.831 17.6382 27.906 17.4003 27.906ZM15.9271 19.1838C16.8189 19.1838 17.5722 18.876 18.187 18.2606C18.8019 17.6452 19.1093 16.8915 19.1093 15.9995C19.1093 15.1075 18.8016 14.354 18.1863 13.7389C17.571 13.1238 16.8174 12.8162 15.9255 12.8162C15.0306 12.8162 14.2763 13.1239 13.6625 13.7394C13.0487 14.3548 12.7417 15.1085 12.7417 16.0005C12.7417 16.8925 13.0487 17.646 13.6625 18.2611C14.2763 18.8762 15.0312 19.1838 15.9271 19.1838ZM15.9255 18.1026C15.3375 18.1026 14.8401 17.8973 14.4332 17.4868C14.0264 17.0762 13.8229 16.5806 13.8229 16C13.8229 15.4194 14.0264 14.9238 14.4332 14.5132C14.8401 14.1027 15.3375 13.8974 15.9255 13.8974C16.509 13.8974 17.0053 14.1027 17.4144 14.5132C17.8235 14.9238 18.0281 15.4194 18.0281 16C18.0281 16.5806 17.8235 17.0762 17.4144 17.4868C17.0053 17.8973 16.509 18.1026 15.9255 18.1026ZM14.6376 26.8248H17.3261L17.8398 23.1329C18.5096 22.9542 19.1176 22.7095 19.6637 22.3989C20.2099 22.0883 20.7682 21.6582 21.3388 21.1086L24.7512 22.5786L26.0653 20.2955L23.0627 18.0538C23.1479 17.6527 23.2161 17.2885 23.2674 16.9612C23.3187 16.6339 23.3443 16.3105 23.3443 15.9909C23.3443 15.6389 23.3223 15.3093 23.2783 15.0023C23.2343 14.6954 23.1624 14.3604 23.0627 13.9974L26.1166 11.7068L24.8118 9.41196L21.3204 10.8846C20.9025 10.4328 20.3596 10.0041 19.6918 9.59869C19.024 9.19329 18.3962 8.94145 17.8084 8.84316L17.3775 5.16579H14.6319L14.2332 8.82646C13.5061 8.97662 12.8627 9.20903 12.3029 9.52369C11.743 9.83838 11.1784 10.2826 10.6088 10.8564L7.21271 9.41196L5.87464 11.7068L8.86654 13.8919C8.75885 14.2155 8.68193 14.5546 8.63578 14.9093C8.58962 15.2639 8.56654 15.6301 8.56654 16.008C8.56654 16.3716 8.58684 16.719 8.62744 17.05C8.66804 17.381 8.73364 17.7188 8.82424 18.0633L5.87464 20.2838L7.20481 22.5786L10.5905 21.141C11.1218 21.6952 11.6762 22.1292 12.2535 22.4432C12.8309 22.7571 13.4803 23.0011 14.2018 23.1752L14.6376 26.8248Z" fill="#1D2023"/>
</g>
</svg>
