<svg width="25" height="24" viewBox="0 0 25 24" fill="none" xmlns="http://www.w3.org/2000/svg">
<g id="right icon">
<path id="Vector" d="M12.5002 12.7077L7.25404 17.9538C7.16046 18.0474 7.04572 18.0974 6.90982 18.1038C6.77392 18.1102 6.65276 18.0602 6.54634 17.9538C6.43993 17.8474 6.38672 17.7294 6.38672 17.5999C6.38672 17.4705 6.43993 17.3525 6.54634 17.2461L11.7925 11.9999L6.54634 6.7538C6.45276 6.66022 6.40276 6.54547 6.39634 6.40957C6.38993 6.27367 6.43993 6.15252 6.54634 6.0461C6.65276 5.93968 6.77071 5.88647 6.90019 5.88647C7.02968 5.88647 7.14763 5.93968 7.25404 6.0461L12.5002 11.2922L17.7463 6.0461C17.8399 5.95252 17.9547 5.90252 18.0906 5.8961C18.2265 5.88968 18.3476 5.93968 18.454 6.0461C18.5605 6.15252 18.6137 6.27047 18.6137 6.39995C18.6137 6.52943 18.5605 6.64738 18.454 6.7538L13.2079 11.9999L18.454 17.2461C18.5476 17.3397 18.5976 17.4544 18.604 17.5903C18.6105 17.7262 18.5605 17.8474 18.454 17.9538C18.3476 18.0602 18.2297 18.1134 18.1002 18.1134C17.9707 18.1134 17.8528 18.0602 17.7463 17.9538L12.5002 12.7077Z" fill="#A7A8AE"/>
</g>
</svg>
