<svg width="32" height="33" viewBox="0 0 32 33" fill="none" xmlns="http://www.w3.org/2000/svg">
<g id="Team" clip-path="url(#clip0_2097_3432)">
<path id="Vector" d="M16.0003 7.16667C16.7367 7.16667 17.3337 6.56971 17.3337 5.83333C17.3337 5.09695 16.7367 4.5 16.0003 4.5C15.2639 4.5 14.667 5.09695 14.667 5.83333C14.667 6.56971 15.2639 7.16667 16.0003 7.16667Z" fill="#1D2023" stroke="#1D2023" stroke-linecap="round" stroke-linejoin="round"/>
<path id="Vector_2" d="M5.33333 17.8334C6.06971 17.8334 6.66667 17.2364 6.66667 16.5C6.66667 15.7636 6.06971 15.1667 5.33333 15.1667C4.59695 15.1667 4 15.7636 4 16.5C4 17.2364 4.59695 17.8334 5.33333 17.8334Z" fill="#1D2023" stroke="#1D2023" stroke-linecap="round" stroke-linejoin="round"/>
<path id="Vector_3" d="M26.6663 17.8334C27.4027 17.8334 27.9997 17.2364 27.9997 16.5C27.9997 15.7636 27.4027 15.1667 26.6663 15.1667C25.93 15.1667 25.333 15.7636 25.333 16.5C25.333 17.2364 25.93 17.8334 26.6663 17.8334Z" fill="#1D2023" stroke="#1D2023" stroke-linecap="round" stroke-linejoin="round"/>
<path id="Vector_4" d="M16.0003 28.5C16.7367 28.5 17.3337 27.903 17.3337 27.1666C17.3337 26.4303 16.7367 25.8333 16.0003 25.8333C15.2639 25.8333 14.667 26.4303 14.667 27.1666C14.667 27.903 15.2639 28.5 16.0003 28.5Z" fill="#1D2023" stroke="#1D2023" stroke-linecap="round" stroke-linejoin="round"/>
<path id="Vector_5" d="M7.33301 7.83331L11.333 11.8333" stroke="#1D2023" stroke-linecap="round" stroke-linejoin="round"/>
<path id="Vector_6" d="M20.667 21.1667L24.667 25.1667" stroke="#1D2023" stroke-linecap="round" stroke-linejoin="round"/>
<path id="Vector_7" d="M24.667 7.83331L20.667 11.8333" stroke="#1D2023" stroke-linecap="round" stroke-linejoin="round"/>
<path id="Vector_8" d="M11.333 21.1667L7.33301 25.1667" stroke="#1D2023" stroke-linecap="round" stroke-linejoin="round"/>
</g>
<defs>
<clipPath id="clip0_2097_3432">
<rect width="32" height="32" fill="white" transform="translate(0 0.5)"/>
</clipPath>
</defs>
</svg>
