<svg width="40" height="40" viewBox="0 0 40 40" fill="none" xmlns="http://www.w3.org/2000/svg">
<rect y="6.10352e-05" width="40" height="40" rx="20" fill="#F1F6FF"/>
<path d="M20 19.3847C19.175 19.3847 18.4688 19.0909 17.8812 18.5034C17.2938 17.9159 17 17.2097 17 16.3847C17 15.5597 17.2938 14.8534 17.8812 14.2659C18.4688 13.6784 19.175 13.3846 20 13.3846C20.825 13.3846 21.5312 13.6784 22.1188 14.2659C22.7063 14.8534 23 15.5597 23 16.3847C23 17.2097 22.7063 17.9159 22.1188 18.5034C21.5312 19.0909 20.825 19.3847 20 19.3847ZM25.9615 26.6154H14.0384C13.7449 26.6154 13.4984 26.5158 13.299 26.3164C13.0997 26.117 13 25.8706 13 25.577V24.9693C13 24.5565 13.1202 24.1702 13.3606 23.8106C13.601 23.451 13.9244 23.1718 14.3308 22.9731C15.2744 22.5206 16.2186 22.1811 17.1634 21.9548C18.1083 21.7286 19.0539 21.6154 20 21.6154C20.9462 21.6154 21.8917 21.7286 22.8365 21.9548C23.7814 22.1811 24.7256 22.5206 25.6692 22.9731C26.0756 23.1718 26.399 23.451 26.6394 23.8106C26.8798 24.1702 27 24.5565 27 24.9693V25.577C27 25.8706 26.9003 26.117 26.701 26.3164C26.5016 26.5158 26.2551 26.6154 25.9615 26.6154ZM14 25.6154H26V24.9693C26 24.7475 25.9285 24.5392 25.7856 24.3443C25.6426 24.1494 25.4449 23.9847 25.1923 23.85C24.3692 23.4513 23.5206 23.1459 22.6464 22.9337C21.7722 22.7215 20.8901 22.6154 20 22.6154C19.1099 22.6154 18.2278 22.7215 17.3536 22.9337C16.4794 23.1459 15.6308 23.4513 14.8077 23.85C14.5551 23.9847 14.3574 24.1494 14.2144 24.3443C14.0715 24.5392 14 24.7475 14 24.9693V25.6154ZM20 18.3847C20.55 18.3847 21.0208 18.1888 21.4125 17.7972C21.8042 17.4055 22 16.9347 22 16.3847C22 15.8347 21.8042 15.3638 21.4125 14.9722C21.0208 14.5805 20.55 14.3847 20 14.3847C19.45 14.3847 18.9792 14.5805 18.5875 14.9722C18.1958 15.3638 18 15.8347 18 16.3847C18 16.9347 18.1958 17.4055 18.5875 17.7972C18.9792 18.1888 19.45 18.3847 20 18.3847Z" fill="#1D2023"/>
</svg>
