<svg width="32" height="33" viewBox="0 0 32 33" fill="none" xmlns="http://www.w3.org/2000/svg">
<g id="Widgets">
<path id="Vector" d="M20.9851 15.6949L16.8569 11.5667C16.7406 11.4504 16.659 11.3305 16.612 11.2068C16.565 11.0832 16.5415 10.9507 16.5415 10.8094C16.5415 10.6681 16.565 10.5367 16.612 10.4154C16.659 10.294 16.7406 10.1752 16.8569 10.059L20.9851 5.93076C21.1013 5.81451 21.2213 5.73289 21.3449 5.68589C21.4686 5.63887 21.601 5.61536 21.7423 5.61536C21.8836 5.61536 22.015 5.63887 22.1364 5.68589C22.2577 5.73289 22.3765 5.81451 22.4928 5.93076L26.621 10.059C26.7372 10.1752 26.8189 10.2951 26.8659 10.4188C26.9129 10.5424 26.9364 10.6749 26.9364 10.8162C26.9364 10.9575 26.9129 11.0889 26.8659 11.2103C26.8189 11.3316 26.7372 11.4504 26.621 11.5667L22.4928 15.6949C22.3765 15.8111 22.2566 15.8927 22.1329 15.9398C22.0093 15.9868 21.8768 16.0103 21.7355 16.0103C21.5942 16.0103 21.4629 15.9868 21.3415 15.9398C21.2201 15.8927 21.1013 15.8111 20.9851 15.6949ZM6.1543 13.5769V7.73076C6.1543 7.42562 6.2575 7.16985 6.4639 6.96342C6.67032 6.75702 6.9261 6.65382 7.23123 6.65382H13.0774C13.3825 6.65382 13.6383 6.75702 13.8447 6.96342C14.0511 7.16985 14.1543 7.42562 14.1543 7.73076V13.5769C14.1543 13.8821 14.0511 14.1378 13.8447 14.3442C13.6383 14.5506 13.3825 14.6538 13.0774 14.6538H7.23123C6.9261 14.6538 6.67032 14.5506 6.4639 14.3442C6.2575 14.1378 6.1543 13.8821 6.1543 13.5769ZM17.8466 25.2692V19.4231C17.8466 19.1179 17.9498 18.8622 18.1562 18.6558C18.3626 18.4494 18.6184 18.3462 18.9235 18.3462H24.7697C25.0748 18.3462 25.3306 18.4494 25.537 18.6558C25.7434 18.8622 25.8466 19.1179 25.8466 19.4231V25.2692C25.8466 25.5744 25.7434 25.8301 25.537 26.0366C25.3306 26.243 25.0748 26.3462 24.7697 26.3462H18.9235C18.6184 26.3462 18.3626 26.243 18.1562 26.0366C17.9498 25.8301 17.8466 25.5744 17.8466 25.2692ZM6.1543 25.2692V19.4231C6.1543 19.1179 6.2575 18.8622 6.4639 18.6558C6.67032 18.4494 6.9261 18.3462 7.23123 18.3462H13.0774C13.3825 18.3462 13.6383 18.4494 13.8447 18.6558C14.0511 18.8622 14.1543 19.1179 14.1543 19.4231V25.2692C14.1543 25.5744 14.0511 25.8301 13.8447 26.0366C13.6383 26.243 13.3825 26.3462 13.0774 26.3462H7.23123C6.9261 26.3462 6.67032 26.243 6.4639 26.0366C6.2575 25.8301 6.1543 25.5744 6.1543 25.2692ZM7.48763 13.3205H12.821V7.98716H7.48763V13.3205ZM21.7723 14.6128L25.5389 10.8462L21.7723 7.07949L18.0056 10.8462L21.7723 14.6128ZM19.18 25.0128H24.5133V19.6795H19.18V25.0128ZM7.48763 25.0128H12.821V19.6795H7.48763V25.0128Z" fill="#1D2023"/>
</g>
</svg>
