<svg width="88" height="88" viewBox="0 0 88 88" fill="none" xmlns="http://www.w3.org/2000/svg">
<rect width="88" height="88" rx="44" fill="#F1F6FF"/>
<path d="M52.7234 42.591L45.499 35.3667C45.2956 35.1633 45.1528 34.9534 45.0705 34.737C44.9883 34.5206 44.9471 34.2888 44.9471 34.0415C44.9471 33.7942 44.9883 33.5643 45.0705 33.3519C45.1528 33.1395 45.2956 32.9316 45.499 32.7282L52.7234 25.5039C52.9268 25.3004 53.1367 25.1576 53.3531 25.0753C53.5695 24.9931 53.8013 24.9519 54.0486 24.9519C54.2959 24.9519 54.5257 24.9931 54.7381 25.0753C54.9506 25.1576 55.1585 25.3004 55.3618 25.5039L62.5863 32.7282C62.7897 32.9316 62.9325 33.1415 63.0148 33.3579C63.097 33.5743 63.1381 33.8061 63.1381 34.0534C63.1381 34.3007 63.097 34.5306 63.0148 34.743C62.9325 34.9554 62.7897 35.1633 62.5863 35.3667L55.3618 42.591C55.1585 42.7945 54.9486 42.9373 54.7321 43.0196C54.5158 43.1019 54.2839 43.143 54.0366 43.143C53.7893 43.143 53.5595 43.1019 53.3471 43.0196C53.1347 42.9373 52.9268 42.7945 52.7234 42.591ZM26.7695 38.8846V28.6539C26.7695 28.1199 26.9501 27.6723 27.3113 27.311C27.6726 26.9498 28.1202 26.7692 28.6542 26.7692H38.885C39.4189 26.7692 39.8665 26.9498 40.2277 27.311C40.5889 27.6723 40.7695 28.1199 40.7695 28.6539V38.8846C40.7695 39.4186 40.5889 39.8662 40.2277 40.2274C39.8665 40.5886 39.4189 40.7692 38.885 40.7692H28.6542C28.1202 40.7692 27.6726 40.5886 27.3113 40.2274C26.9501 39.8662 26.7695 39.4186 26.7695 38.8846ZM47.2311 59.3462V49.1154C47.2311 48.5814 47.4117 48.1338 47.7729 47.7726C48.1341 47.4114 48.5817 47.2308 49.1157 47.2308H59.3465C59.8805 47.2308 60.3281 47.4114 60.6893 47.7726C61.0505 48.1338 61.2311 48.5814 61.2311 49.1154V59.3462C61.2311 59.8802 61.0505 60.3278 60.6893 60.689C60.3281 61.0502 59.8805 61.2308 59.3465 61.2308H49.1157C48.5817 61.2308 48.1341 61.0502 47.7729 60.689C47.4117 60.3278 47.2311 59.8802 47.2311 59.3462ZM26.7695 59.3462V49.1154C26.7695 48.5814 26.9501 48.1338 27.3113 47.7726C27.6726 47.4114 28.1202 47.2308 28.6542 47.2308H38.885C39.4189 47.2308 39.8665 47.4114 40.2277 47.7726C40.5889 48.1338 40.7695 48.5814 40.7695 49.1154V59.3462C40.7695 59.8802 40.5889 60.3278 40.2277 60.689C39.8665 61.0502 39.4189 61.2308 38.885 61.2308H28.6542C28.1202 61.2308 27.6726 61.0502 27.3113 60.689C26.9501 60.3278 26.7695 59.8802 26.7695 59.3462ZM29.1029 38.4359H38.4362V29.1026H29.1029V38.4359ZM54.101 40.6975L60.6926 34.1058L54.101 27.5141L47.5093 34.1058L54.101 40.6975ZM49.5644 58.8975H58.8978V49.5641H49.5644V58.8975ZM29.1029 58.8975H38.4362V49.5641H29.1029V58.8975Z" fill="#1D2023"/>
</svg>
