<svg width="36" height="36" viewBox="0 0 36 36" fill="none" xmlns="http://www.w3.org/2000/svg">
<circle cx="18" cy="18" r="18" fill="#BCD3FB"/>
<path fill-rule="evenodd" clip-rule="evenodd" d="M12.2197 12.2197C12.5126 11.9268 12.9874 11.9268 13.2803 12.2197L23.7803 22.7197C24.0732 23.0126 24.0732 23.4874 23.7803 23.7803C23.4874 24.0732 23.0126 24.0732 22.7197 23.7803L12.2197 13.2803C11.9268 12.9874 11.9268 12.5126 12.2197 12.2197Z" fill="white"/>
<path fill-rule="evenodd" clip-rule="evenodd" d="M23.7803 12.2197C24.0732 12.5126 24.0732 12.9874 23.7803 13.2803L13.2803 23.7803C12.9874 24.0732 12.5126 24.0732 12.2197 23.7803C11.9268 23.4874 11.9268 23.0126 12.2197 22.7197L22.7197 12.2197C23.0126 11.9268 23.4874 11.9268 23.7803 12.2197Z" fill="white"/>
</svg>
